<svg xmlns="http://www.w3.org/2000/svg" width="380" height="509" fill="none"><path fill="#fff" d="M0 15.017C0 6.723 6.723 0 15.017 0h349.967C373.277 0 380 6.723 380 15.017v478.967c0 8.293-6.723 15.016-15.016 15.016H15.017C6.723 509 0 502.277 0 493.984z"/><path stroke="url(#a)" stroke-opacity=".6" stroke-width="6.57" d="M3.285 15.017c0-6.48 5.252-11.732 11.732-11.732h349.967c6.479 0 11.731 5.252 11.731 11.732v478.967c0 6.479-5.252 11.731-11.731 11.731H15.017c-6.48 0-11.732-5.252-11.732-11.731z"/><path fill="#2C47B9" d="M292.01 174.232v21.118c0 10.794-8.803 19.545-19.661 19.545H90.66c-10.857 0-19.66-8.751-19.66-19.545V87.664c0-10.785 8.803-19.536 19.66-19.536h100.375c7.611 0 13.495-.027 18.805 6.192 3.183 3.725 5.375 8.19 8.485 11.97 2.055 2.494 4.583 4.782 7.611 6.03 1.728.713 3.419.849 5.265.849h56.125c2.592 0 4.693 2.088 4.693 4.665v76.398"/><path stroke="#fff" stroke-width=".642" d="M292.01 174.232v21.118c0 10.794-8.803 19.545-19.661 19.545H90.66c-10.857 0-19.66-8.751-19.66-19.545V87.664c0-10.785 8.803-19.536 19.66-19.536h100.375c7.611 0 13.495-.027 18.805 6.192 3.183 3.725 5.375 8.19 8.485 11.97 2.055 2.494 4.583 4.782 7.611 6.03 1.728.713 3.419.849 5.265.849h56.125c2.592 0 4.693 2.088 4.693 4.665v76.398"/><path stroke="#fff" stroke-width=".834" d="M104.675 90.183c0 6.652-5.426 12.048-12.126 12.048s-12.126-5.396-12.126-12.048 5.427-12.049 12.126-12.049c6.7 0 12.126 5.397 12.126 12.049Z"/><path fill="#5953EA" d="M292.01 225.374v21.118c0 10.794-8.803 19.545-19.661 19.545H90.66c-10.857 0-19.66-8.751-19.66-19.545V138.805c0-10.785 8.803-19.535 19.66-19.535h100.375c7.611 0 13.495-.028 18.805 6.192 3.183 3.725 5.375 8.19 8.485 11.969 2.055 2.495 4.583 4.782 7.611 6.03 1.728.714 3.419.85 5.265.85h56.125c2.592 0 4.693 2.088 4.693 4.665v76.398"/><path stroke="#fff" stroke-width=".642" d="M292.01 225.374v21.118c0 10.794-8.803 19.545-19.661 19.545H90.66c-10.857 0-19.66-8.751-19.66-19.545V138.805c0-10.785 8.803-19.535 19.66-19.535h100.375c7.611 0 13.495-.028 18.805 6.192 3.183 3.725 5.375 8.19 8.485 11.969 2.055 2.495 4.583 4.782 7.611 6.03 1.728.714 3.419.85 5.265.85h56.125c2.592 0 4.693 2.088 4.693 4.665v76.398"/><path stroke="#fff" stroke-width=".834" d="M104.675 140.685c0 6.652-5.426 12.049-12.126 12.049s-12.126-5.397-12.126-12.049 5.427-12.048 12.126-12.048c6.7 0 12.126 5.396 12.126 12.048Z"/><path fill="#fff" d="M118.201 138.698a2.1 2.1 0 0 0-.866-.901q-.555-.312-1.282-.312-.797 0-1.421.358a2.54 2.54 0 0 0-.982 1.016q-.347.658-.347 1.525t.347 1.536q.358.658.982 1.017.623.358 1.421.358 1.074 0 1.744-.601.67-.6.82-1.628h-3.015v-1.052h4.424v1.028a3.9 3.9 0 0 1-.67 1.722q-.531.785-1.397 1.259a3.95 3.95 0 0 1-1.906.462 4.2 4.2 0 0 1-2.068-.52 4 4 0 0 1-1.49-1.467q-.543-.935-.543-2.114t.543-2.114a3.9 3.9 0 0 1 1.49-1.455 4.15 4.15 0 0 1 2.068-.532q1.281 0 2.275.636 1.005.623 1.456 1.779zm5.628 5.821a3.3 3.3 0 0 1-1.628-.404 3 3 0 0 1-1.144-1.155q-.416-.751-.416-1.733 0-.97.427-1.721.427-.75 1.167-1.155a3.4 3.4 0 0 1 1.652-.404q.912 0 1.652.404.74.405 1.167 1.155.427.751.427 1.721t-.439 1.721q-.44.751-1.201 1.167a3.45 3.45 0 0 1-1.664.404m0-1.143q.508 0 .948-.243.45-.242.727-.727.277-.486.277-1.179t-.265-1.166a1.8 1.8 0 0 0-.705-.728 1.9 1.9 0 0 0-.947-.243q-.509 0-.947.243a1.74 1.74 0 0 0-.682.728q-.254.473-.254 1.166 0 1.029.52 1.594.531.555 1.328.555m7.11 1.143a3.3 3.3 0 0 1-1.629-.404 3 3 0 0 1-1.143-1.155q-.416-.751-.416-1.733 0-.97.427-1.721.428-.75 1.167-1.155a3.4 3.4 0 0 1 1.652-.404q.912 0 1.652.404.738.405 1.166 1.155.428.751.428 1.721t-.439 1.721-1.202 1.167q-.75.405-1.663.404m0-1.143q.509 0 .947-.243a1.83 1.83 0 0 0 .728-.727q.277-.486.277-1.179t-.266-1.166a1.8 1.8 0 0 0-.704-.728 1.9 1.9 0 0 0-.947-.243q-.508 0-.948.243a1.73 1.73 0 0 0-.681.728q-.254.473-.254 1.166 0 1.029.52 1.594.531.555 1.328.555m6.913-5.429q.74 0 1.306.3.577.289.901.728v-.924h1.328v6.468q0 .879-.37 1.56a2.65 2.65 0 0 1-1.074 1.086q-.693.393-1.663.393-1.294 0-2.149-.613-.855-.6-.97-1.64h1.305q.15.497.635.797.497.312 1.179.312.796 0 1.282-.485.497-.485.497-1.41v-1.062a2.7 2.7 0 0 1-.913.762q-.566.3-1.294.3a2.9 2.9 0 0 1-1.525-.415 3.1 3.1 0 0 1-1.085-1.179q-.393-.762-.393-1.721t.393-1.698a2.92 2.92 0 0 1 2.61-1.559m2.207 3.28q0-.658-.278-1.143a1.87 1.87 0 0 0-.704-.74 1.87 1.87 0 0 0-.948-.254q-.507 0-.947.254a1.87 1.87 0 0 0-.716.728q-.266.474-.266 1.132 0 .659.266 1.155.278.497.716.763.451.254.947.254.508 0 .948-.254a1.87 1.87 0 0 0 .704-.74q.278-.497.278-1.155m4.118-5.36v8.549h-1.317v-8.549zm7.306 5.21q0 .358-.047.647h-4.863q.058.762.566 1.224.508.463 1.248.463 1.063 0 1.501-.89h1.421a2.9 2.9 0 0 1-1.051 1.444q-.75.554-1.871.554a3.3 3.3 0 0 1-1.641-.404 3.03 3.03 0 0 1-1.132-1.155q-.404-.751-.404-1.733 0-.981.393-1.721.404-.75 1.12-1.155.728-.405 1.664-.404.9 0 1.605.392.705.393 1.098 1.109.393.705.393 1.629m-1.375-.416q-.012-.728-.52-1.166-.508-.44-1.259-.439a1.68 1.68 0 0 0-1.167.439q-.485.427-.577 1.166z"/><path fill="#120C2B" d="M292.01 276.516v21.118c0 10.794-8.803 19.544-19.661 19.544H90.66c-10.857 0-19.66-8.75-19.66-19.544V189.947c0-10.785 8.803-19.536 19.66-19.536h100.375c7.611 0 13.495-.027 18.805 6.193 3.183 3.724 5.375 8.19 8.485 11.969 2.055 2.495 4.583 4.782 7.611 6.03 1.728.714 3.419.85 5.265.85h56.125c2.592 0 4.693 2.088 4.693 4.664v76.399"/><path stroke="#120C2B" stroke-width=".642" d="M292.01 276.516v21.118c0 10.794-8.803 19.544-19.661 19.544H90.66c-10.857 0-19.66-8.75-19.66-19.544V189.947c0-10.785 8.803-19.536 19.66-19.536h100.375c7.611 0 13.495-.027 18.805 6.193 3.183 3.724 5.375 8.19 8.485 11.969 2.055 2.495 4.583 4.782 7.611 6.03 1.728.714 3.419.85 5.265.85h56.125c2.592 0 4.693 2.088 4.693 4.664v76.399"/><path stroke="#fff" stroke-width=".834" d="M104.675 193.105c0 6.651-5.426 12.048-12.126 12.048s-12.126-5.397-12.126-12.048c0-6.652 5.427-12.049 12.126-12.049 6.7 0 12.126 5.397 12.126 12.049Z"/><path fill="#fff" d="M95.131 226.725v7.106h-.934v-5.298l-2.362 5.298h-.657l-2.372-5.309v5.309h-.934v-7.106h1.006l2.629 5.874 2.628-5.874zm.979 4.272q0-.862.35-1.51.348-.657.954-1.016.615-.36 1.366-.359.739 0 1.283.318t.811.801v-1.027h.945v5.627h-.945v-1.048a2.2 2.2 0 0 1-.831.822q-.545.318-1.274.318-.75 0-1.355-.369a2.6 2.6 0 0 1-.955-1.037q-.35-.668-.349-1.52m4.764.01q0-.636-.256-1.109a1.77 1.77 0 0 0-.698-.719 1.83 1.83 0 0 0-.956-.256q-.523 0-.954.246a1.8 1.8 0 0 0-.688.719q-.257.472-.257 1.109 0 .647.257 1.129.255.472.688.729.43.247.954.247.525 0 .956-.247.441-.256.698-.729.256-.482.256-1.119m3.202-1.889a1.8 1.8 0 0 1 .698-.75q.462-.267 1.119-.267v.965h-.246q-1.572 0-1.571 1.705v3.06h-.935v-5.627h.935zm5.781 4.713-2.207-2.485v2.485h-.935v-7.599h.935v4.467l2.166-2.495h1.304l-2.649 2.803 2.659 2.824zm7.02-3.029q0 .267-.031.564h-4.497q.051.833.564 1.305.525.462 1.263.462.606 0 1.007-.278.41-.287.575-.759h1.006q-.226.81-.904 1.324-.677.504-1.684.503-.801 0-1.437-.359a2.57 2.57 0 0 1-.986-1.017q-.359-.667-.359-1.54t.349-1.53q.35-.657.975-1.006.637-.36 1.458-.359.802 0 1.417.349.616.348.945.965.339.606.339 1.376m-.965-.195q0-.534-.237-.914a1.5 1.5 0 0 0-.646-.585 1.9 1.9 0 0 0-.894-.206 1.75 1.75 0 0 0-1.211.452q-.493.452-.565 1.253zm3.081-1.633v3.317q0 .41.175.585.174.164.606.164h.688v.791h-.842q-.781 0-1.171-.36-.39-.359-.39-1.18v-3.317h-.729v-.77h.729v-1.417h.934v1.417h1.469v.77zm2.827-1.684a.62.62 0 0 1-.452-.185.62.62 0 0 1-.185-.452q0-.267.185-.451a.61.61 0 0 1 .452-.185q.257 0 .431.185a.61.61 0 0 1 .185.451.62.62 0 0 1-.185.452.57.57 0 0 1-.431.185m.451.914v5.627h-.934v-5.627zm4.078-.103q1.026 0 1.663.627.637.615.637 1.786v3.317h-.924v-3.183q0-.842-.421-1.284-.421-.452-1.15-.452-.74 0-1.181.462-.432.463-.431 1.346v3.111h-.935v-5.627h.935v.801q.276-.431.749-.668a2.4 2.4 0 0 1 1.058-.236m5.89.011q.729 0 1.273.318.555.318.822.801v-1.027h.944v5.75q0 .77-.328 1.366a2.3 2.3 0 0 1-.945.944q-.606.339-1.417.339-1.108 0-1.848-.523a2.05 2.05 0 0 1-.873-1.428h.924q.154.514.637.822.483.318 1.16.318.77 0 1.253-.483.493-.482.493-1.355v-1.181a2.25 2.25 0 0 1-.822.822q-.544.328-1.273.328-.75 0-1.366-.369a2.6 2.6 0 0 1-.955-1.037 3.24 3.24 0 0 1-.349-1.52q0-.862.349-1.51a2.54 2.54 0 0 1 .955-1.016q.616-.36 1.366-.359m2.095 2.895q0-.636-.257-1.109a1.77 1.77 0 0 0-.698-.719 1.83 1.83 0 0 0-.955-.256q-.524 0-.955.246a1.8 1.8 0 0 0-.688.719q-.257.472-.257 1.109 0 .647.257 1.129.256.472.688.729.431.247.955.247.523 0 .955-.247.441-.256.698-.729.257-.482.257-1.119m4.398-.01q0-.862.349-1.51a2.54 2.54 0 0 1 .955-1.016q.616-.36 1.366-.359.74 0 1.284.318.543.318.811.801v-1.027h.944v5.627h-.944v-1.048a2.2 2.2 0 0 1-.832.822q-.544.318-1.273.318-.75 0-1.356-.369a2.6 2.6 0 0 1-.955-1.037 3.24 3.24 0 0 1-.349-1.52m4.765.01q0-.636-.257-1.109a1.77 1.77 0 0 0-.698-.719 1.83 1.83 0 0 0-.955-.256q-.524 0-.955.246a1.8 1.8 0 0 0-.688.719q-.257.472-.257 1.109 0 .647.257 1.129.256.472.688.729.431.247.955.247.523 0 .955-.247.441-.256.698-.729.257-.482.257-1.119m5.008-2.906q1.027 0 1.664.627.636.615.636 1.786v3.317h-.924v-3.183q0-.842-.421-1.284-.42-.452-1.15-.452-.739 0-1.181.462-.43.463-.431 1.346v3.111h-.934v-5.627h.934v.801q.278-.431.75-.668a2.4 2.4 0 0 1 1.057-.236m3.221 2.896q0-.862.349-1.51.35-.657.955-1.016.616-.36 1.376-.359.657 0 1.222.308.565.298.862.79v-2.978h.945v7.599h-.945v-1.058a2.2 2.2 0 0 1-.821.832q-.544.318-1.274.318-.749 0-1.365-.369a2.6 2.6 0 0 1-.955-1.037q-.35-.668-.349-1.52m4.764.01q0-.636-.257-1.109a1.77 1.77 0 0 0-.698-.719 1.83 1.83 0 0 0-.955-.256q-.523 0-.955.246a1.8 1.8 0 0 0-.688.719q-.256.472-.256 1.109 0 .647.256 1.129.258.472.688.729.432.247.955.247.524 0 .955-.247a1.83 1.83 0 0 0 .698-.729q.257-.482.257-1.119m10.169-2.259a2.2 2.2 0 0 0-.862-.965q-.566-.35-1.314-.349-.75 0-1.356.349a2.4 2.4 0 0 0-.944.986q-.339.636-.339 1.478t.339 1.479q.348.636.944.986a2.74 2.74 0 0 0 1.356.338q1.047 0 1.725-.626.677-.626.79-1.694h-2.854v-.76h3.85v.719a3.6 3.6 0 0 1-.554 1.622 3.5 3.5 0 0 1-1.243 1.16 3.5 3.5 0 0 1-1.714.421q-.996 0-1.818-.462a3.5 3.5 0 0 1-1.304-1.304q-.472-.831-.472-1.879 0-1.047.472-1.879a3.4 3.4 0 0 1 1.304-1.304 3.6 3.6 0 0 1 1.818-.472q1.139 0 2.012.565.883.564 1.284 1.591zm3.248.37q.247-.483.699-.75.462-.267 1.119-.267v.965h-.247q-1.57 0-1.571 1.705v3.06h-.934v-5.627h.934zm2.291 1.879q0-.862.349-1.51.35-.657.955-1.016.616-.36 1.365-.359.74 0 1.284.318t.811.801v-1.027h.945v5.627h-.945v-1.048a2.2 2.2 0 0 1-.832.822q-.543.318-1.273.318-.75 0-1.355-.369a2.6 2.6 0 0 1-.955-1.037q-.35-.668-.349-1.52m4.764.01q0-.636-.257-1.109a1.77 1.77 0 0 0-.698-.719 1.83 1.83 0 0 0-.955-.256q-.523 0-.955.246a1.8 1.8 0 0 0-.688.719q-.256.472-.256 1.109 0 .647.256 1.129.257.472.688.729.432.247.955.247.524 0 .955-.247.441-.256.698-.729.257-.482.257-1.119m3.201-1.766q.278-.483.822-.801.554-.328 1.283-.328.75 0 1.356.359.615.359.965 1.016.35.648.349 1.51 0 .852-.349 1.52-.35.666-.965 1.037a2.56 2.56 0 0 1-1.356.369q-.718 0-1.273-.318a2.4 2.4 0 0 1-.832-.811v3.706h-.934v-8.296h.934zm3.82 1.756q0-.637-.257-1.109a1.76 1.76 0 0 0-.698-.719 1.9 1.9 0 0 0-.955-.246q-.513 0-.955.256-.43.247-.698.729a2.3 2.3 0 0 0-.257 1.099q0 .637.257 1.119.267.472.698.729.442.247.955.247.524 0 .955-.247a1.83 1.83 0 0 0 .698-.729q.257-.482.257-1.129m4.721-2.896q.637 0 1.15.277.513.267.801.812.298.543.298 1.324v3.317h-.924v-3.183q0-.842-.421-1.284-.421-.452-1.15-.452-.74 0-1.181.462-.432.463-.431 1.346v3.111h-.935v-7.599h.935v2.773q.276-.431.76-.668a2.5 2.5 0 0 1 1.098-.236m4.001-.811a.62.62 0 0 1-.452-.185.62.62 0 0 1-.185-.452q0-.267.185-.451a.61.61 0 0 1 .452-.185q.257 0 .431.185a.6.6 0 0 1 .185.451.61.61 0 0 1-.185.452.57.57 0 0 1-.431.185m.452.914v5.627h-.934v-5.627zm.987 2.803q0-.872.349-1.52.348-.657.965-1.016a2.8 2.8 0 0 1 1.427-.359q1.038 0 1.705.503.677.503.893 1.396h-1.006a1.44 1.44 0 0 0-.565-.811q-.41-.298-1.027-.298-.8 0-1.294.555-.492.543-.492 1.55 0 1.017.492 1.571.493.555 1.294.555.616 0 1.027-.288t.565-.821h1.006a2.5 2.5 0 0 1-.904 1.386q-.677.513-1.694.513a2.8 2.8 0 0 1-1.427-.359 2.5 2.5 0 0 1-.965-1.017q-.35-.657-.349-1.54m8.461-.01q0-.862.349-1.51.35-.657.955-1.016.615-.36 1.376-.359.657 0 1.222.308.564.298.862.79v-2.978h.945v7.599h-.945v-1.058a2.2 2.2 0 0 1-.821.832q-.545.318-1.274.318-.75 0-1.365-.369a2.6 2.6 0 0 1-.955-1.037q-.35-.668-.349-1.52m4.764.01q0-.636-.257-1.109a1.77 1.77 0 0 0-.698-.719 1.83 1.83 0 0 0-.955-.256q-.523 0-.955.246a1.8 1.8 0 0 0-.688.719q-.256.472-.256 1.109 0 .647.256 1.129.257.472.688.729.432.247.955.247.524 0 .955-.247.441-.256.698-.729.257-.482.257-1.119m7.401-.205q0 .267-.031.564h-4.497q.05.833.565 1.305.523.462 1.263.462.605 0 1.006-.278.41-.287.575-.759h1.006q-.226.81-.903 1.324-.679.504-1.684.503a2.9 2.9 0 0 1-1.438-.359 2.57 2.57 0 0 1-.986-1.017q-.359-.667-.359-1.54t.349-1.53q.35-.657.975-1.006.637-.36 1.459-.359.8 0 1.417.349.615.348.944.965.339.606.339 1.376m-.965-.195q0-.534-.236-.914a1.5 1.5 0 0 0-.647-.585 1.9 1.9 0 0 0-.894-.206 1.75 1.75 0 0 0-1.211.452q-.493.452-.565 1.253zm3.934 3.316q-.647 0-1.161-.215a2 2 0 0 1-.811-.616 1.67 1.67 0 0 1-.328-.914h.965q.04.42.39.688.36.267.934.267.534 0 .842-.237a.72.72 0 0 0 .308-.595.575.575 0 0 0-.328-.544q-.328-.185-1.017-.36a8 8 0 0 1-1.026-.328 1.95 1.95 0 0 1-.678-.503q-.277-.34-.277-.883 0-.432.256-.791a1.7 1.7 0 0 1 .729-.565 2.6 2.6 0 0 1 1.078-.215q.935 0 1.51.472t.616 1.294h-.934a.96.96 0 0 0-.36-.709q-.319-.267-.862-.267-.504 0-.801.216a.67.67 0 0 0-.298.565q0 .276.175.462.184.174.451.287.277.103.76.236.606.165.986.329.38.154.647.472.277.318.287.832 0 .462-.256.832a1.76 1.76 0 0 1-.729.585 2.6 2.6 0 0 1-1.068.205m3.598-6.633a.62.62 0 0 1-.452-.185.62.62 0 0 1-.184-.452q0-.267.184-.451a.61.61 0 0 1 .452-.185.57.57 0 0 1 .432.185.61.61 0 0 1 .184.451.62.62 0 0 1-.184.452.57.57 0 0 1-.432.185m.452.914v5.627h-.934v-5.627zm3.656-.092q.73 0 1.274.318.554.318.821.801v-1.027h.945v5.75q0 .77-.329 1.366a2.33 2.33 0 0 1-.944.944q-.607.339-1.417.339-1.11 0-1.849-.523a2.05 2.05 0 0 1-.872-1.428h.924q.154.514.636.822.483.318 1.161.318.77 0 1.252-.483.493-.482.493-1.355v-1.181a2.25 2.25 0 0 1-.821.822q-.545.328-1.274.328-.75 0-1.365-.369a2.6 2.6 0 0 1-.955-1.037q-.35-.668-.349-1.52 0-.862.349-1.51.35-.657.955-1.016.616-.36 1.365-.359m2.095 2.895q0-.636-.257-1.109a1.77 1.77 0 0 0-.698-.719 1.83 1.83 0 0 0-.955-.256q-.523 0-.955.246a1.8 1.8 0 0 0-.688.719q-.256.472-.256 1.109 0 .647.256 1.129.257.472.688.729.432.247.955.247.524 0 .955-.247a1.83 1.83 0 0 0 .698-.729q.258-.482.257-1.119m5.009-2.906q1.027 0 1.663.627.637.615.637 1.786v3.317h-.924v-3.183q0-.842-.421-1.284-.421-.452-1.15-.452-.74 0-1.181.462-.432.463-.432 1.346v3.111h-.934v-5.627h.934v.801q.278-.431.75-.668a2.4 2.4 0 0 1 1.058-.236m8.703 2.701q0 .267-.03.564h-4.498q.051.833.565 1.305.524.462 1.263.462.606 0 1.006-.278.411-.287.575-.759h1.006q-.225.81-.903 1.324-.678.504-1.684.503-.8 0-1.438-.359a2.57 2.57 0 0 1-.985-1.017q-.36-.667-.36-1.54t.349-1.53q.35-.657.976-1.006.636-.36 1.458-.359.8 0 1.417.349.616.348.944.965.339.606.339 1.376m-.965-.195q0-.534-.236-.914a1.5 1.5 0 0 0-.647-.585 1.9 1.9 0 0 0-.893-.206q-.709 0-1.212.452-.493.452-.565 1.253zm2.876-1.489q.247-.483.699-.75.462-.267 1.119-.267v.965h-.247q-1.57 0-1.571 1.705v3.06h-.934v-5.627h.934zM96.867 247.131l-2.075 7.157h-1.047l-1.663-5.761-1.725 5.761-1.037.01-2.003-7.167h.996l1.561 6.068 1.725-6.068h1.047l1.643 6.048 1.571-6.048zm3.219 7.249q-.79 0-1.437-.359a2.6 2.6 0 0 1-1.006-1.017q-.36-.667-.36-1.54 0-.863.37-1.52a2.57 2.57 0 0 1 1.027-1.016q.646-.36 1.447-.36t1.448.36q.647.349 1.017 1.006.38.657.38 1.53t-.39 1.54a2.65 2.65 0 0 1-1.038 1.017 3 3 0 0 1-1.458.359m0-.821q.504 0 .945-.237.442-.236.709-.708.276-.472.277-1.15 0-.678-.267-1.15a1.7 1.7 0 0 0-.698-.698 1.9 1.9 0 0 0-.935-.237q-.513 0-.945.237-.42.225-.677.698-.257.472-.257 1.15 0 .688.247 1.16.256.472.677.709.42.226.924.226m4.792-3.984a1.8 1.8 0 0 1 .698-.75q.462-.267 1.119-.267v.965h-.246q-1.57 0-1.571 1.705v3.06h-.934v-5.627h.934zm5.781 4.713-2.207-2.485v2.485h-.935v-7.599h.935v4.467l2.166-2.495h1.304l-2.649 2.803 2.66 2.824zm2.369-6.541a.62.62 0 0 1-.452-.185.62.62 0 0 1-.185-.452q0-.267.185-.452a.62.62 0 0 1 .452-.184q.257 0 .431.184a.62.62 0 0 1 .185.452.62.62 0 0 1-.185.452.57.57 0 0 1-.431.185m.451.914v5.627h-.934v-5.627zm4.078-.103q1.027 0 1.663.626.637.617.637 1.787v3.317h-.924v-3.183q0-.843-.421-1.284-.421-.452-1.15-.452-.74 0-1.181.462-.431.463-.431 1.345v3.112h-.935v-5.627h.935v.801q.276-.431.749-.668a2.4 2.4 0 0 1 1.058-.236m5.89.01q.729 0 1.273.319.555.318.822.801v-1.027h.944v5.75q0 .77-.328 1.365a2.33 2.33 0 0 1-.945.945q-.606.339-1.417.339-1.109 0-1.848-.524a2.05 2.05 0 0 1-.873-1.427h.924q.154.513.637.821.483.32 1.16.319.77 0 1.253-.483.492-.482.493-1.355v-1.181a2.25 2.25 0 0 1-.822.821q-.544.329-1.273.329a2.6 2.6 0 0 1-1.366-.37 2.6 2.6 0 0 1-.955-1.037 3.24 3.24 0 0 1-.349-1.519q0-.863.349-1.51a2.54 2.54 0 0 1 .955-1.016q.616-.36 1.366-.36m2.095 2.896q0-.637-.257-1.109a1.77 1.77 0 0 0-.698-.719 1.84 1.84 0 0 0-.955-.257q-.524 0-.955.247a1.8 1.8 0 0 0-.688.719q-.257.472-.257 1.109 0 .646.257 1.129.256.472.688.729.431.247.955.247.523 0 .955-.247.441-.256.698-.729a2.35 2.35 0 0 0 .257-1.119m7.017 2.895a3.2 3.2 0 0 1-1.274-.246 2.2 2.2 0 0 1-.872-.698 1.8 1.8 0 0 1-.329-1.037h.996q.051.502.411.852.369.339 1.068.339.667 0 1.047-.329.39-.339.39-.862 0-.411-.226-.668a1.44 1.44 0 0 0-.564-.39 9 9 0 0 0-.914-.287 8.4 8.4 0 0 1-1.14-.37 1.9 1.9 0 0 1-.729-.575q-.298-.4-.298-1.068 0-.585.298-1.037t.832-.698a3 3 0 0 1 1.242-.247q1.007 0 1.643.504.647.503.729 1.334h-1.027q-.051-.41-.431-.718-.38-.32-1.006-.319-.586 0-.955.308-.37.298-.37.842 0 .39.216.637.226.246.544.38.329.123.914.287.708.195 1.14.391.43.185.739.585.308.39.308 1.068 0 .523-.277.985a2.04 2.04 0 0 1-.822.75q-.544.287-1.283.287m4.64-4.928v3.316q0 .41.175.586.174.164.605.164h.688v.791h-.842q-.78 0-1.17-.36-.39-.359-.39-1.181v-3.316h-.729v-.77h.729v-1.417h.934v1.417h1.468v.77zm7.334-.77v5.627h-.934v-.832a1.86 1.86 0 0 1-.75.678 2.3 2.3 0 0 1-1.047.236q-.657 0-1.181-.267a2.05 2.05 0 0 1-.832-.822q-.298-.543-.298-1.324v-3.296h.925v3.173q0 .831.42 1.283.421.442 1.151.442.749 0 1.18-.462.432-.463.432-1.346v-3.09zm.972 2.793q0-.863.349-1.51.35-.657.955-1.016.616-.36 1.376-.36.657 0 1.222.308.564.298.862.791v-2.978h.945v7.599h-.945v-1.058a2.2 2.2 0 0 1-.821.832q-.544.318-1.273.318a2.6 2.6 0 0 1-1.366-.37 2.6 2.6 0 0 1-.955-1.037q-.35-.667-.349-1.519m4.764.01q0-.637-.256-1.109a1.77 1.77 0 0 0-.699-.719 1.83 1.83 0 0 0-.955-.257q-.523 0-.955.247a1.8 1.8 0 0 0-.688.719q-.256.472-.256 1.109 0 .646.256 1.129.258.472.688.729.432.247.955.247.524 0 .955-.247a1.84 1.84 0 0 0 .699-.729 2.35 2.35 0 0 0 .256-1.119m7.401-.205q0 .267-.031.564h-4.497q.05.832.565 1.304.524.462 1.263.462.606 0 1.006-.277.41-.288.575-.76h1.006q-.226.812-.903 1.325-.678.503-1.684.503-.8 0-1.438-.359a2.57 2.57 0 0 1-.986-1.017q-.359-.667-.359-1.54t.349-1.53q.35-.657.976-1.006.636-.36 1.458-.36.8 0 1.417.349.615.35.944.966.339.605.339 1.376m-.965-.196q0-.534-.236-.913a1.5 1.5 0 0 0-.647-.586 1.9 1.9 0 0 0-.893-.205 1.75 1.75 0 0 0-1.212.452q-.493.452-.565 1.252zm4.683-2.505q1.027 0 1.664.626.636.617.636 1.787v3.317h-.924v-3.183q0-.843-.421-1.284-.42-.452-1.15-.452-.74 0-1.18.462-.432.463-.432 1.345v3.112h-.934v-5.627h.934v.801q.278-.431.75-.668a2.4 2.4 0 0 1 1.057-.236m4.71.873v3.316q0 .41.174.586.175.164.606.164h.688v.791h-.842q-.78 0-1.17-.36-.39-.359-.391-1.181v-3.316h-.729v-.77h.729v-1.417h.935v1.417h1.468v.77zM92.102 275.07h-3.121l-.575 1.592h-.986l2.587-7.116h1.079l2.577 7.116h-.986zm-.267-.76-1.294-3.614-1.293 3.614zm5.02-3.368q.729 0 1.273.319.554.318.821.801v-1.027h.945v5.75q0 .77-.329 1.365a2.33 2.33 0 0 1-.944.945q-.606.339-1.417.339-1.11 0-1.849-.524a2.05 2.05 0 0 1-.873-1.427h.925q.154.513.636.822.483.318 1.16.318.77 0 1.253-.483.493-.483.493-1.355v-1.181a2.24 2.24 0 0 1-.821.821q-.544.33-1.273.329-.75 0-1.366-.37a2.6 2.6 0 0 1-.955-1.037q-.35-.667-.35-1.519 0-.862.35-1.51a2.53 2.53 0 0 1 .955-1.016q.616-.36 1.365-.36m2.094 2.896q0-.636-.257-1.109a1.77 1.77 0 0 0-.698-.719 1.83 1.83 0 0 0-.955-.256q-.523 0-.955.246a1.8 1.8 0 0 0-.688.719q-.256.472-.256 1.109 0 .646.256 1.129.256.472.688.729.432.247.955.247.525 0 .955-.247.442-.257.698-.729.257-.483.257-1.119m4.721 2.916q-.79 0-1.437-.359a2.6 2.6 0 0 1-1.007-1.017q-.359-.667-.359-1.54 0-.863.37-1.52a2.56 2.56 0 0 1 1.026-1.016q.648-.36 1.448-.36.801 0 1.448.36.647.349 1.017 1.006.38.657.379 1.53 0 .873-.39 1.54a2.65 2.65 0 0 1-1.037 1.017 3 3 0 0 1-1.458.359m0-.821q.503 0 .945-.237a1.76 1.76 0 0 0 .708-.708q.278-.472.278-1.15t-.267-1.15a1.7 1.7 0 0 0-.699-.698 1.9 1.9 0 0 0-.934-.236q-.513 0-.945.236-.42.225-.677.698-.258.472-.257 1.15 0 .688.246 1.16.257.472.678.709.422.226.924.226m6.071-.021a47 47 0 0 0 2.043-1.715q.74-.677 1.243-1.406.513-.74.513-1.448 0-.667-.328-1.048-.318-.39-1.037-.39-.699 0-1.089.442-.38.43-.41 1.16h-.904q.04-1.15.698-1.776t1.694-.627q1.057 0 1.674.586.627.585.626 1.612 0 .852-.513 1.663a7.3 7.3 0 0 1-1.15 1.417q-.646.606-1.653 1.417h3.532v.78h-4.939zm5.763-3.039q0-1.767.575-2.752.575-.996 2.012-.996 1.428 0 2.002.996.576.985.575 2.752 0 1.797-.575 2.793-.574.996-2.002.996-1.437 0-2.012-.996-.576-.996-.575-2.793m4.24 0q0-.894-.123-1.51-.112-.626-.483-1.006-.358-.38-1.047-.38-.698 0-1.068.38-.359.38-.482 1.006a8.5 8.5 0 0 0-.113 1.51q0 .924.113 1.55.123.627.482 1.006.37.38 1.068.38.689 0 1.047-.38.37-.38.483-1.006.123-.626.123-1.55m1.837 3.039q1.305-1.047 2.044-1.715.74-.677 1.242-1.406.514-.74.514-1.448 0-.667-.329-1.048-.318-.39-1.037-.39-.698 0-1.088.442-.381.43-.411 1.16h-.904q.042-1.15.698-1.776.658-.627 1.695-.627 1.058 0 1.673.586.627.585.627 1.612 0 .852-.514 1.663a7.3 7.3 0 0 1-1.15 1.417q-.647.606-1.653 1.417h3.532v.78h-4.939zm5.742-4.805q.072-.945.729-1.479t1.705-.534q.698 0 1.201.257.513.246.77.677.267.432.267.976 0 .636-.369 1.099-.36.462-.945.595v.052q.667.164 1.058.646.39.483.39 1.263 0 .586-.267 1.058a1.85 1.85 0 0 1-.801.729q-.534.267-1.284.267-1.088 0-1.786-.565-.699-.575-.781-1.622h.904q.072.616.503 1.006.432.39 1.15.39.719 0 1.088-.369.38-.38.38-.976 0-.77-.513-1.109t-1.55-.339h-.237v-.78h.247q.944-.01 1.427-.308.483-.307.483-.945 0-.543-.36-.872-.349-.329-1.006-.329-.637 0-1.027.329-.39.328-.462.883zm12.347 1.396v.791h-4.097v-.791zm8.763-.904q0 .894-.616 1.489-.606.586-1.859.586h-1.376v2.988h-.934v-7.157h2.31q1.212 0 1.838.585.637.585.637 1.509m-2.475 1.305q.78 0 1.15-.339t.37-.966q0-1.324-1.52-1.324h-1.376v2.629zm4.314-.955a1.8 1.8 0 0 1 .698-.75q.462-.267 1.119-.267v.965h-.246q-1.57 0-1.571 1.705v3.06h-.935v-5.627h.935zm7.773 1.684q0 .267-.031.564h-4.497q.052.832.565 1.304.524.462 1.263.462.606 0 1.006-.277.41-.288.575-.76h1.006q-.226.812-.903 1.325-.678.503-1.684.503-.8 0-1.438-.359a2.57 2.57 0 0 1-.986-1.017q-.359-.667-.359-1.54t.349-1.53q.35-.658.976-1.006.636-.36 1.458-.36.8 0 1.417.349.615.35.944.966.339.606.339 1.376m-.965-.196q0-.533-.236-.913a1.5 1.5 0 0 0-.647-.586 1.9 1.9 0 0 0-.893-.205 1.75 1.75 0 0 0-1.212.452q-.493.452-.565 1.252zm3.934 3.317q-.647 0-1.16-.216a2 2 0 0 1-.812-.616 1.66 1.66 0 0 1-.328-.914h.965a.95.95 0 0 0 .39.688q.36.267.935.267.533 0 .842-.236a.72.72 0 0 0 .308-.595.58.58 0 0 0-.329-.545q-.329-.185-1.016-.359a8 8 0 0 1-1.027-.328 2 2 0 0 1-.678-.504q-.277-.339-.277-.883 0-.431.257-.79a1.7 1.7 0 0 1 .729-.565 2.6 2.6 0 0 1 1.078-.216q.934 0 1.509.473.575.472.616 1.293h-.934a.96.96 0 0 0-.36-.708q-.318-.267-.862-.267-.504 0-.801.216a.66.66 0 0 0-.298.564q0 .277.175.462.185.175.452.288.277.102.759.236.606.164.986.329.38.154.647.472.278.318.287.832 0 .462-.256.831a1.74 1.74 0 0 1-.729.586 2.6 2.6 0 0 1-1.068.205m8.25-3.121q0 .267-.031.564h-4.497q.051.832.564 1.304.524.462 1.263.462.606 0 1.007-.277a1.52 1.52 0 0 0 .575-.76h1.006a2.44 2.44 0 0 1-.904 1.325q-.677.503-1.684.503-.801 0-1.437-.359a2.57 2.57 0 0 1-.986-1.017q-.359-.667-.359-1.54t.349-1.53q.35-.658.975-1.006.638-.36 1.458-.36.802 0 1.417.349.617.35.945.966.339.606.339 1.376m-.965-.196q0-.533-.237-.913a1.5 1.5 0 0 0-.646-.586 1.9 1.9 0 0 0-.894-.205 1.75 1.75 0 0 0-1.211.452q-.493.452-.565 1.252zm4.683-2.505q1.027 0 1.663.626.637.617.637 1.787v3.317h-.924v-3.183q0-.843-.421-1.284-.421-.452-1.15-.452-.739 0-1.181.462-.43.463-.431 1.345v3.112h-.934v-5.627h.934v.801a1.87 1.87 0 0 1 .749-.668 2.4 2.4 0 0 1 1.058-.236m4.709.873v3.316q0 .41.175.586.174.164.606.164h.688v.791h-.842q-.78 0-1.171-.36-.39-.359-.39-1.181v-3.316h-.729v-.77h.729v-1.417h.934v1.417h1.469v.77zM240.553 208.512q0-1.048.482-1.879a3.5 3.5 0 0 1 1.325-1.294 3.7 3.7 0 0 1 1.838-.472q1.14 0 2.023.565a3.14 3.14 0 0 1 1.293 1.581h-1.406a1.9 1.9 0 0 0-.77-.842 2.3 2.3 0 0 0-1.14-.277q-.708 0-1.263.318t-.873.914q-.308.595-.308 1.386t.308 1.386q.318.595.873.924.555.319 1.263.319.647 0 1.14-.278.492-.277.77-.842h1.406a3.15 3.15 0 0 1-1.293 1.582q-.883.554-2.023.554a3.7 3.7 0 0 1-1.838-.462 3.57 3.57 0 0 1-1.325-1.304q-.482-.832-.482-1.879m13.199-2.074v5.657h-1.171v-.667a1.93 1.93 0 0 1-.729.555 2.3 2.3 0 0 1-.945.195q-.667 0-1.201-.278a2.04 2.04 0 0 1-.832-.821q-.297-.544-.297-1.314v-3.327h1.16v3.152q0 .76.38 1.171.38.4 1.037.4t1.037-.4q.39-.41.39-1.171v-3.152zm2.458.821q.257-.431.678-.667a2 2 0 0 1 1.016-.247v1.212h-.298q-.687 0-1.047.349-.35.35-.349 1.212v2.977h-1.171v-5.657h1.171zm3.684 0q.256-.431.678-.667a2 2 0 0 1 1.016-.247v1.212h-.298q-.687 0-1.047.349-.35.35-.349 1.212v2.977h-1.171v-5.657h1.171zm7.699 1.869q0 .318-.041.575h-4.323q.051.678.503 1.088t1.109.411q.945 0 1.335-.79h1.263q-.257.78-.935 1.283-.667.493-1.663.493-.812 0-1.458-.36a2.7 2.7 0 0 1-1.006-1.026q-.36-.668-.36-1.541t.349-1.529q.36-.668.996-1.027.648-.36 1.479-.36.801 0 1.427.349.627.35.976.986.35.627.349 1.448m-1.222-.37q-.01-.647-.462-1.037-.451-.39-1.119-.39-.606 0-1.037.39-.432.38-.514 1.037zm4.972-2.413q.667 0 1.191.278.534.276.831.821.298.544.298 1.314v3.337h-1.16v-3.162q0-.76-.38-1.16-.38-.411-1.037-.411t-1.047.411q-.38.4-.38 1.16v3.162h-1.171v-5.657h1.171v.647q.287-.349.729-.545.451-.195.955-.195m4.922 1.048v3.131q0 .32.144.463.154.133.513.133h.719v.975h-.924q-.79 0-1.212-.369-.42-.37-.421-1.202v-3.131h-.667v-.955h.667v-1.407h1.181v1.407h1.376v.955zM123.17 190.725l-3.015 8.028h-1.525l-3.027-8.028h1.41l2.379 6.677 2.391-6.677zm1.514.82a.82.82 0 0 1-.601-.243.82.82 0 0 1-.242-.6q0-.358.242-.601a.82.82 0 0 1 .601-.243q.346 0 .589.243a.82.82 0 0 1 .243.601.81.81 0 0 1-.243.6.8.8 0 0 1-.589.243m.647.843v6.365h-1.317v-6.365zm3.933 5.187 1.802-5.187h1.397l-2.425 6.365h-1.571l-2.415-6.365h1.41zm3.499-2.033q0-.959.393-1.698a2.94 2.94 0 0 1 2.611-1.56q.75 0 1.305.301.566.288.901.727v-.924h1.328v6.365h-1.328v-.947q-.335.45-.913.751-.578.3-1.316.3a2.8 2.8 0 0 1-1.502-.416 3.1 3.1 0 0 1-1.086-1.178q-.393-.762-.393-1.721m5.21.023q0-.658-.277-1.144a1.86 1.86 0 0 0-.705-.739 1.86 1.86 0 0 0-.947-.254 1.86 1.86 0 0 0-.947.254 1.86 1.86 0 0 0-.717.728q-.265.474-.265 1.132 0 .659.265 1.155.278.496.717.762a1.9 1.9 0 0 0 1.894 0q.44-.253.705-.739.277-.496.277-1.155m2.362-.023q0-.959.393-1.698.405-.74 1.086-1.144a2.9 2.9 0 0 1 1.525-.416q.75 0 1.305.301.566.288.901.727v-.924h1.329v6.365h-1.329v-.947q-.335.45-.912.751-.578.3-1.317.3a2.8 2.8 0 0 1-1.502-.416 3.1 3.1 0 0 1-1.086-1.178q-.393-.762-.393-1.721m5.21.023q0-.658-.277-1.144a1.86 1.86 0 0 0-.705-.739 1.86 1.86 0 0 0-.947-.254 1.86 1.86 0 0 0-.947.254 1.85 1.85 0 0 0-.716.728q-.266.474-.266 1.132 0 .659.266 1.155.276.496.716.762a1.9 1.9 0 0 0 1.894 0q.44-.253.705-.739.277-.496.277-1.155m8.635-.15q0 .358-.046.647h-4.863q.057.762.566 1.224t1.247.462q1.063 0 1.502-.889h1.421a2.9 2.9 0 0 1-1.051 1.444q-.751.554-1.872.554a3.3 3.3 0 0 1-1.64-.404 3 3 0 0 1-1.132-1.155q-.405-.751-.404-1.733 0-.982.392-1.721.404-.751 1.121-1.155.727-.405 1.663-.405.901 0 1.606.393.704.393 1.097 1.109.393.705.393 1.629m-1.375-.416q-.011-.728-.519-1.167t-1.26-.439a1.68 1.68 0 0 0-1.166.439q-.486.428-.578 1.167zm3.731-1.687a2.04 2.04 0 0 1 .763-.75q.484-.278 1.143-.278v1.363h-.335q-.774 0-1.178.393-.393.393-.393 1.363v3.35h-1.317v-6.365h1.317zm5.621 5.545a3.3 3.3 0 0 1-1.629-.404 3 3 0 0 1-1.144-1.155q-.415-.751-.415-1.733 0-.97.427-1.721a2.95 2.95 0 0 1 1.167-1.155 3.4 3.4 0 0 1 1.651-.405 3.4 3.4 0 0 1 1.652.405q.74.404 1.167 1.155.427.75.427 1.721 0 .97-.438 1.721-.44.752-1.202 1.167-.75.404-1.663.404m0-1.143q.508 0 .947-.243.45-.243.728-.728t.277-1.178-.266-1.167a1.8 1.8 0 0 0-.704-.727 1.9 1.9 0 0 0-.948-.243q-.507 0-.947.243a1.73 1.73 0 0 0-.681.727q-.255.474-.255 1.167 0 1.028.52 1.594.532.555 1.329.555m5.665-4.378q.336-.463.913-.751a2.8 2.8 0 0 1 1.305-.301q.844 0 1.525.405.683.404 1.074 1.155.393.74.393 1.698 0 .959-.393 1.721a2.96 2.96 0 0 1-1.085 1.178 2.85 2.85 0 0 1-1.514.416q-.739 0-1.317-.289a2.54 2.54 0 0 1-.901-.739v.924h-1.316v-8.548h1.316zm3.87 2.206q0-.658-.277-1.132a1.76 1.76 0 0 0-.716-.728 1.87 1.87 0 0 0-.947-.254q-.497 0-.948.254a1.95 1.95 0 0 0-.716.739q-.266.486-.266 1.144 0 .659.266 1.155.278.486.716.739.45.255.948.255.507 0 .947-.255.45-.266.716-.762.277-.496.277-1.155m8.15-3.154v6.365h-1.317v-.751a2.2 2.2 0 0 1-.82.624q-.496.22-1.063.22-.75 0-1.351-.312a2.3 2.3 0 0 1-.936-.924q-.335-.613-.335-1.479v-3.743h1.305v3.547q0 .854.428 1.316.428.451 1.166.451.74 0 1.167-.451.44-.462.439-1.316v-3.547zm3.791 6.469q-.75 0-1.351-.266a2.43 2.43 0 0 1-.936-.739 1.88 1.88 0 0 1-.37-1.051h1.363q.034.405.382.682.357.265.889.265.555 0 .855-.208.312-.22.312-.554 0-.358-.347-.532-.334-.172-1.074-.381a10 10 0 0 1-1.167-.381 2.1 2.1 0 0 1-.785-.566q-.324-.381-.324-1.005 0-.508.301-.924.3-.427.854-.67a3.3 3.3 0 0 1 1.294-.243q1.086 0 1.744.555.67.542.717 1.49h-1.317a.94.94 0 0 0-.347-.682q-.312-.254-.843-.254-.52 0-.797.197a.61.61 0 0 0-.277.519q0 .254.184.428.186.173.451.277.266.093.785.243.694.184 1.133.381.45.185.773.554.324.37.335.982 0 .543-.3.971t-.855.67q-.543.242-1.282.242M116.688 89.79q.647.116 1.097.681.451.567.451 1.282 0 .613-.324 1.11-.312.484-.912.773-.601.278-1.398.278h-3.211v-8.029h3.061q.82 0 1.409.277.589.278.89.751.3.462.3 1.04 0 .693-.37 1.155a2.15 2.15 0 0 1-.993.682m-2.98-.532h1.628q.648 0 1.005-.288.37-.3.37-.855 0-.543-.37-.844-.357-.31-1.005-.311h-1.628zm1.779 3.581q.67 0 1.051-.323.381-.324.381-.901 0-.59-.404-.936-.405-.346-1.075-.346h-1.732v2.506zm3.484-2.137q0-.959.393-1.698a2.93 2.93 0 0 1 2.611-1.56q.75 0 1.305.301.566.289.901.728v-.924h1.328v6.365h-1.328v-.948q-.335.45-.913.751-.578.3-1.316.3a2.83 2.83 0 0 1-1.502-.415 3.1 3.1 0 0 1-1.086-1.179q-.393-.762-.393-1.72m5.21.023q0-.658-.277-1.143a1.86 1.86 0 0 0-.705-.74 1.86 1.86 0 0 0-.947-.254q-.509 0-.947.255a1.86 1.86 0 0 0-.717.727q-.265.474-.265 1.132 0 .66.265 1.155.278.498.717.763a1.9 1.9 0 0 0 1.894 0q.44-.254.705-.74.277-.496.277-1.155m6.013-3.28q.75 0 1.34.312.6.311.935.924.336.612.335 1.478v3.755h-1.305v-3.558q0-.855-.427-1.306-.428-.462-1.167-.462t-1.178.462q-.428.45-.428 1.306v3.558h-1.317v-6.365h1.317v.727q.324-.392.82-.612.508-.22 1.075-.22m3.594 3.28q0-.981.393-1.72.405-.751 1.109-1.156.705-.404 1.617-.404 1.156 0 1.906.554.763.543 1.028 1.56h-1.42a1.5 1.5 0 0 0-.555-.74q-.381-.265-.959-.265-.809 0-1.293.577-.474.567-.474 1.594 0 1.029.474 1.606.484.578 1.293.578 1.144 0 1.514-1.005h1.42a2.87 2.87 0 0 1-1.039 1.547q-.762.567-1.895.567-.912 0-1.617-.405a2.97 2.97 0 0 1-1.109-1.155q-.393-.75-.393-1.733m9.87 3.293a3.3 3.3 0 0 1-1.629-.405 3 3 0 0 1-1.143-1.155q-.417-.75-.416-1.733 0-.97.427-1.72.428-.751 1.167-1.156a3.4 3.4 0 0 1 1.652-.404q.912 0 1.652.404.738.405 1.166 1.155.428.751.428 1.721t-.439 1.722-1.202 1.166q-.75.404-1.663.404m0-1.144q.508 0 .947-.243.45-.242.728-.727.277-.486.277-1.179 0-.692-.266-1.166a1.8 1.8 0 0 0-.704-.728 1.93 1.93 0 0 0-.947-.243q-.508 0-.948.243a1.73 1.73 0 0 0-.681.728q-.254.473-.254 1.166 0 1.028.519 1.595.532.554 1.329.554m11.39-3.084q.647.116 1.097.681.451.567.451 1.282 0 .613-.324 1.11-.312.484-.912.773-.601.278-1.398.278h-3.211v-8.029h3.061q.82 0 1.409.277.589.278.89.751.3.462.3 1.04 0 .693-.37 1.155a2.15 2.15 0 0 1-.993.682m-2.98-.532h1.628q.648 0 1.005-.288.37-.3.37-.855 0-.543-.37-.844-.357-.31-1.005-.311h-1.628zm1.779 3.581q.67 0 1.051-.323.381-.324.381-.901 0-.59-.404-.936-.405-.346-1.075-.346h-1.732v2.506zm4.593-6.134a.82.82 0 0 1-.601-.242.82.82 0 0 1-.242-.6q0-.36.242-.602a.82.82 0 0 1 .601-.242.8.8 0 0 1 .589.242.82.82 0 0 1 .243.601.82.82 0 0 1-.243.6.8.8 0 0 1-.589.243m.647.844v6.365h-1.317v-6.365zm2.789-2.184v8.549h-1.317v-8.549zm2.789 3.13q.336-.46.913-.75.59-.3 1.305-.3.843 0 1.525.404.681.405 1.074 1.155.393.74.393 1.698 0 .96-.393 1.721-.393.752-1.086 1.179a2.85 2.85 0 0 1-1.513.415q-.74 0-1.317-.288a2.54 2.54 0 0 1-.901-.74v.925h-1.317v-8.549h1.317zm3.87 2.207q0-.658-.277-1.132a1.77 1.77 0 0 0-.716-.727 1.898 1.898 0 0 0-1.895 0q-.439.253-.716.739-.266.484-.266 1.143t.266 1.156q.277.485.716.739a1.9 1.9 0 0 0 1.895 0q.45-.265.716-.763.277-.496.277-1.155m1.947 0q0-.959.392-1.698a2.94 2.94 0 0 1 2.611-1.56q.752 0 1.305.301.567.289.901.728v-.924h1.329v6.365h-1.329v-.948q-.334.45-.912.751-.577.3-1.317.3a2.83 2.83 0 0 1-1.502-.415 3.1 3.1 0 0 1-1.086-1.179q-.392-.762-.392-1.72m5.209.023q0-.658-.277-1.143a1.855 1.855 0 0 0-1.652-.993q-.508 0-.947.254a1.86 1.86 0 0 0-.716.727q-.266.474-.266 1.132 0 .66.266 1.155.277.498.716.763a1.9 1.9 0 0 0 1.894 0q.44-.254.705-.74.277-.496.277-1.155m5.563 3.293a3.3 3.3 0 0 1-1.629-.405 3 3 0 0 1-1.144-1.155q-.416-.75-.416-1.733 0-.97.428-1.72.428-.751 1.166-1.156a3.4 3.4 0 0 1 1.652-.404q.913 0 1.652.404.74.405 1.167 1.155.427.751.427 1.721t-.439 1.722-1.201 1.166a3.45 3.45 0 0 1-1.663.404m0-1.144q.507 0 .947-.243.45-.242.727-.727.278-.486.278-1.179 0-.692-.266-1.166a1.8 1.8 0 0 0-.705-.728 1.9 1.9 0 0 0-.947-.243q-.508 0-.947.243a1.74 1.74 0 0 0-.682.728q-.254.473-.254 1.166 0 1.028.52 1.595.531.554 1.329.554m14.012-6.989-3.015 8.029h-1.525l-3.027-8.029h1.41l2.379 6.677 2.392-6.677zm1.376 8.11a.82.82 0 0 1-.601-.243.82.82 0 0 1-.243-.6q0-.36.243-.602a.82.82 0 0 1 .601-.242q.346 0 .589.242a.81.81 0 0 1 .242.601q0 .36-.242.6a.8.8 0 0 1-.589.243m2.529 0a.81.81 0 0 1-.6-.243.82.82 0 0 1-.243-.6q0-.36.243-.602a.81.81 0 0 1 .6-.242.8.8 0 0 1 .589.242.82.82 0 0 1 .243.601.82.82 0 0 1-.243.6.8.8 0 0 1-.589.243m2.53 0a.82.82 0 0 1-.601-.243.82.82 0 0 1-.242-.6q0-.36.242-.602a.82.82 0 0 1 .601-.242q.346 0 .589.242a.82.82 0 0 1 .243.601.82.82 0 0 1-.243.6.8.8 0 0 1-.589.243M100.307 140.852q.001-.752-.127-1.495h-6.983v2.831h3.999a3.4 3.4 0 0 1-1.478 2.233v1.839h2.387c1.397-1.277 2.202-3.169 2.202-5.408"/><path fill="#fff" d="M93.195 148.037c1.998 0 3.68-.651 4.908-1.775l-2.387-1.839c-.665.448-1.52.703-2.52.703-1.932 0-3.57-1.293-4.158-3.034h-2.457v1.894a7.41 7.41 0 0 0 6.614 4.051"/><path fill="#fff" d="M89.041 142.092a4.36 4.36 0 0 1 0-2.814v-1.893h-2.459a7.3 7.3 0 0 0 0 6.603z"/><path fill="#fff" d="M93.195 136.245a4.04 4.04 0 0 1 2.84 1.102l2.115-2.097a7.15 7.15 0 0 0-4.955-1.916 7.41 7.41 0 0 0-6.614 4.051l2.46 1.894c.585-1.743 2.223-3.034 4.154-3.034"/><g clip-path="url(#b)"><path fill="#F8F8F8" d="m92.548 82.831-6.11 3.197v1.278h12.221v-1.278m-3.216 2.557v4.475h1.93v-4.475m-10.936 7.67H98.66v-1.917H86.437m5.146-5.753v4.475h1.93v-4.475m-5.789 0v4.475h1.93v-4.475z"/></g><path fill="#fff" d="m86.514 197.032-1.224-8.086h1.282l.832 6.272h.023l.832-6.272h1.166l-1.224 8.086zm3.265 0v-8.086h1.27v8.086zm2.855 0-1.224-8.086h1.282l.832 6.272h.023l.831-6.272h1.167l-1.224 8.086zm2.603 0 1.317-8.086h1.72l1.318 8.086H98.32l-.231-1.606v.023h-1.444l-.231 1.583zm1.56-2.68h1.143l-.566-3.997h-.023zM249.798 173.427a42 42 0 0 0 1.551-1.397 6.4 6.4 0 0 0 .955-1.15q.38-.596.379-1.191 0-.616-.297-.965-.288-.35-.914-.349-.606 0-.945.39-.328.38-.349 1.027h-1.129q.03-1.171.698-1.787.678-.627 1.715-.626 1.12 0 1.745.616.637.615.637 1.643 0 .738-.38 1.427a5.7 5.7 0 0 1-.894 1.222q-.513.534-1.314 1.242l-.462.411h3.255v.975h-4.99v-.852zm12.875-5.545-2.361 4.549v2.587h-1.171v-2.587l-2.372-4.549h1.304l1.653 3.501 1.654-3.501zm5.858 4.169q0 .317-.041.575h-4.323q.051.677.503 1.088t1.109.411q.945 0 1.335-.791h1.263q-.257.78-.934 1.284-.668.492-1.664.492a2.95 2.95 0 0 1-1.458-.359 2.7 2.7 0 0 1-1.006-1.027q-.36-.667-.36-1.54t.35-1.53q.359-.667.996-1.027.647-.359 1.478-.359.801 0 1.427.349.627.349.976.986.35.626.349 1.448m-1.222-.37q-.01-.647-.462-1.037t-1.119-.39q-.606 0-1.037.39-.432.38-.514 1.037zm1.727.483q0-.853.349-1.51a2.6 2.6 0 0 1 2.321-1.386q.667 0 1.16.267.502.257.801.647v-.822h1.181v5.658h-1.181v-.842q-.298.4-.811.668a2.5 2.5 0 0 1-1.171.266q-.729 0-1.335-.369a2.75 2.75 0 0 1-.965-1.048 3.3 3.3 0 0 1-.349-1.529m4.631.02q0-.585-.247-1.016a1.66 1.66 0 0 0-.626-.658 1.66 1.66 0 0 0-.842-.225q-.452 0-.842.225-.39.216-.636.647-.237.421-.237 1.007t.237 1.026q.246.442.636.678a1.69 1.69 0 0 0 1.684 0q.39-.227.626-.657.247-.442.247-1.027m3.632-2.002a1.8 1.8 0 0 1 .678-.668 2 2 0 0 1 1.016-.246v1.212h-.298q-.687 0-1.047.349-.35.348-.349 1.211v2.978h-1.171v-5.658h1.171zm4.567 4.928q-.667 0-1.201-.236a2.17 2.17 0 0 1-.832-.657 1.67 1.67 0 0 1-.329-.934h1.212a.85.85 0 0 0 .339.606q.318.236.791.236.492 0 .759-.185.278-.195.278-.493 0-.319-.308-.472-.298-.155-.955-.339a9 9 0 0 1-1.037-.339 1.86 1.86 0 0 1-.699-.503q-.287-.34-.287-.893 0-.452.267-.822a1.76 1.76 0 0 1 .76-.595 2.9 2.9 0 0 1 1.15-.216q.965 0 1.55.493.595.483.637 1.324h-1.171a.83.83 0 0 0-.308-.605q-.277-.226-.749-.226-.462 0-.709.174a.54.54 0 0 0-.246.462q0 .227.164.38.165.154.4.247.237.081.699.215.615.165 1.006.339.4.165.688.493t.298.873q0 .483-.267.862a1.77 1.77 0 0 1-.76.596q-.483.216-1.14.215M242.317 117.295l-2.855 6.582h-1.18l2.885-6.458h-3.799v-.996h4.949zm8.598-.554-2.362 4.549v2.587h-1.17v-2.587l-2.372-4.549h1.304l1.653 3.501 1.653-3.501zm5.857 4.169q0 .318-.041.575h-4.323q.052.677.504 1.088.451.411 1.108.411.945 0 1.335-.791h1.263q-.256.78-.934 1.284-.668.492-1.664.493a2.95 2.95 0 0 1-1.458-.36 2.7 2.7 0 0 1-1.006-1.027q-.359-.667-.359-1.54t.349-1.53q.358-.667.996-1.027.647-.359 1.478-.359.801 0 1.428.349.625.35.975.986.35.627.349 1.448m-1.222-.37q-.009-.647-.462-1.037-.451-.39-1.119-.39-.606 0-1.037.39-.431.38-.513 1.037zm1.727.483q0-.852.349-1.51a2.61 2.61 0 0 1 2.321-1.386q.668 0 1.16.267.504.257.801.647v-.821h1.181v5.657h-1.181v-.842q-.298.4-.811.668a2.5 2.5 0 0 1-1.17.267q-.729 0-1.335-.37a2.74 2.74 0 0 1-.966-1.047 3.3 3.3 0 0 1-.349-1.53m4.631.02q0-.585-.246-1.016a1.65 1.65 0 0 0-1.469-.883q-.451 0-.841.226a1.64 1.64 0 0 0-.637.646q-.237.422-.236 1.007 0 .585.236 1.026.246.443.637.678a1.68 1.68 0 0 0 1.683 0 1.65 1.65 0 0 0 .627-.657q.246-.442.246-1.027m3.632-2.002q.257-.432.678-.667.431-.247 1.017-.247v1.212h-.298q-.688 0-1.047.349-.35.349-.35 1.211v2.978h-1.17v-5.657h1.17zm4.568 4.929q-.668 0-1.202-.237a2.2 2.2 0 0 1-.832-.657 1.67 1.67 0 0 1-.328-.934h1.211a.85.85 0 0 0 .339.606q.319.236.791.236.493 0 .76-.185.277-.195.277-.493 0-.318-.308-.472-.298-.154-.955-.339a9 9 0 0 1-1.037-.339 1.85 1.85 0 0 1-.698-.503q-.288-.34-.288-.893 0-.451.267-.822.268-.38.76-.595a2.9 2.9 0 0 1 1.15-.216q.965 0 1.551.493.595.483.636 1.325h-1.17a.84.84 0 0 0-.308-.606q-.277-.226-.75-.226-.462 0-.708.174a.54.54 0 0 0-.247.462.5.5 0 0 0 .164.38q.164.154.401.247.236.082.698.215.616.165 1.006.339.401.165.688.493.288.329.298.873 0 .483-.267.862a1.76 1.76 0 0 1-.76.596q-.482.216-1.139.216"/><rect width="21.87" height="19.178" x="188.714" y="264.384" fill="#4C92FF" fill-opacity=".49" rx="4.492"/><path stroke="#fff" stroke-linecap="round" stroke-linejoin="round" stroke-width=".963" d="m194.503 272.321 4.237 4.21a1.297 1.297 0 0 0 1.818 0l4.237-4.21"/><path fill="#000" d="M51.7 385h-5.13l-8.58-12.99V385h-5.13v-21.06h5.13l8.58 13.05v-13.05h5.13zm11.339.24q-2.46 0-4.44-1.05-1.95-1.05-3.09-3-1.11-1.95-1.11-4.56 0-2.58 1.14-4.53 1.14-1.98 3.12-3.03t4.44-1.05 4.44 1.05 3.12 3.03q1.14 1.95 1.14 4.53t-1.17 4.56q-1.14 1.95-3.15 3-1.98 1.05-4.44 1.05m0-4.44q1.47 0 2.49-1.08 1.05-1.08 1.05-3.09t-1.02-3.09q-.99-1.08-2.46-1.08-1.5 0-2.49 1.08-.99 1.05-.99 3.09 0 2.01.96 3.09.99 1.08 2.46 1.08m39.199-12.72q3.12 0 4.95 1.89 1.86 1.89 1.86 5.25V385h-5.1v-9.09q0-1.62-.87-2.49-.84-.9-2.34-.9t-2.37.9q-.84.87-.84 2.49V385h-5.1v-9.09q0-1.62-.87-2.49-.84-.9-2.34-.9t-2.37.9q-.84.87-.84 2.49V385h-5.13v-16.74h5.13v2.1q.78-1.05 2.04-1.65 1.26-.63 2.85-.63 1.89 0 3.36.81 1.5.81 2.34 2.31.87-1.38 2.37-2.25t3.27-.87m18.017 17.16q-2.46 0-4.44-1.05-1.95-1.05-3.09-3-1.11-1.95-1.11-4.56 0-2.58 1.14-4.53 1.14-1.98 3.12-3.03t4.44-1.05 4.44 1.05 3.12 3.03q1.14 1.95 1.14 4.53t-1.17 4.56q-1.14 1.95-3.15 3-1.98 1.05-4.44 1.05m0-4.44q1.47 0 2.49-1.08 1.05-1.08 1.05-3.09t-1.02-3.09q-.99-1.08-2.46-1.08-1.5 0-2.49 1.08-.99 1.05-.99 3.09 0 2.01.96 3.09.99 1.08 2.46 1.08m16.612-9.75q.9-1.38 2.25-2.16 1.35-.81 3-.81v5.43h-1.41q-1.92 0-2.88.84-.96.81-.96 2.88V385h-5.13v-16.74h5.13zm23.482 5.31q0 .72-.09 1.5h-11.61q.12 1.56.99 2.4.9.81 2.19.81 1.92 0 2.67-1.62h5.46q-.42 1.65-1.53 2.97-1.08 1.32-2.73 2.07t-3.69.75q-2.46 0-4.38-1.05t-3-3-1.08-4.56 1.05-4.56q1.08-1.95 3-3t4.41-1.05q2.43 0 4.32 1.02t2.94 2.91q1.08 1.89 1.08 4.41m-5.25-1.35q0-1.32-.9-2.1t-2.25-.78q-1.29 0-2.19.75-.87.75-1.08 2.13zm22.714-2.49h-2.76V385h-5.13v-12.48h-1.86v-4.26h1.86v-.48q0-3.09 1.77-4.68 1.77-1.62 5.19-1.62.57 0 .84.03v4.35q-1.47-.09-2.07.42t-.6 1.83v.15h2.76zm10.03 12.72q-2.46 0-4.44-1.05-1.95-1.05-3.09-3-1.11-1.95-1.11-4.56 0-2.58 1.14-4.53 1.14-1.98 3.12-3.03t4.44-1.05 4.44 1.05 3.12 3.03q1.14 1.95 1.14 4.53t-1.17 4.56q-1.14 1.95-3.15 3-1.98 1.05-4.44 1.05m0-4.44q1.47 0 2.49-1.08 1.05-1.08 1.05-3.09t-1.02-3.09q-.99-1.08-2.46-1.08-1.5 0-2.49 1.08-.99 1.05-.99 3.09 0 2.01.96 3.09.99 1.08 2.46 1.08m16.612-9.75q.9-1.38 2.25-2.16 1.35-.81 3-.81v5.43h-1.41q-1.92 0-2.88.84-.96.81-.96 2.88V385h-5.13v-16.74h5.13zm29.062-2.97q3.12 0 4.95 1.89 1.86 1.89 1.86 5.25V385h-5.1v-9.09q0-1.62-.87-2.49-.84-.9-2.34-.9t-2.37.9q-.84.87-.84 2.49V385h-5.1v-9.09q0-1.62-.87-2.49-.84-.9-2.34-.9t-2.37.9q-.84.87-.84 2.49V385h-5.13v-16.74h5.13v2.1q.78-1.05 2.04-1.65 1.26-.63 2.85-.63 1.89 0 3.36.81 1.5.81 2.34 2.31.87-1.38 2.37-2.25t3.27-.87m25.155 4.44h-2.76V385h-5.13v-12.48h-1.86v-4.26h1.86v-.48q0-3.09 1.77-4.68 1.77-1.62 5.19-1.62.57 0 .84.03v4.35q-1.47-.09-2.07.42t-.6 1.83v.15h2.76zm4.991-6q-1.35 0-2.22-.78-.84-.81-.84-1.98 0-1.2.84-1.98.87-.81 2.22-.81 1.32 0 2.16.81.87.78.87 1.98 0 1.17-.87 1.98-.84.78-2.16.78m2.55 1.74V385h-5.13v-16.74zm8.847-5.46V385h-5.13v-22.2zm8.848 0V385h-5.13v-22.2zm6.298 3.72q-1.35 0-2.22-.78-.84-.81-.84-1.98 0-1.2.84-1.98.87-.81 2.22-.81 1.32 0 2.16.81.87.78.87 1.98 0 1.17-.87 1.98-.84.78-2.16.78m2.55 1.74V385h-5.13v-16.74zm13.917-.18q2.94 0 4.68 1.92 1.77 1.89 1.77 5.22V385h-5.1v-9.09q0-1.68-.87-2.61t-2.34-.93-2.34.93-.87 2.61V385h-5.13v-16.74h5.13v2.22q.78-1.11 2.1-1.74 1.32-.66 2.97-.66m16.375-.06q1.77 0 3.09.72 1.35.72 2.07 1.89v-2.37h5.13v16.71q0 2.31-.93 4.17-.9 1.89-2.79 3-1.86 1.11-4.65 1.11-3.72 0-6.03-1.77-2.31-1.74-2.64-4.74h5.07q.24.96 1.14 1.5.9.57 2.22.57 1.59 0 2.52-.93.96-.9.96-2.91v-2.37q-.75 1.17-2.07 1.92-1.32.72-3.09.72-2.07 0-3.75-1.05-1.68-1.08-2.67-3.03-.96-1.98-.96-4.56t.96-4.53q.99-1.95 2.67-3t3.75-1.05m5.16 8.61q0-1.92-1.08-3.03-1.05-1.11-2.58-1.11t-2.61 1.11q-1.05 1.08-1.05 3t1.05 3.06q1.08 1.11 2.61 1.11t2.58-1.11q1.08-1.11 1.08-3.03"/><path fill="#484848" d="m39.184 426-3.003-5.218h-1.633V426h-2.14v-13.046h4.505q1.501 0 2.534.526 1.05.526 1.558 1.408.525.882.525 1.971 0 1.276-.75 2.327-.733 1.033-2.272 1.408L41.737 426zm-4.636-6.926h2.365q1.2 0 1.802-.601.62-.6.62-1.614t-.602-1.577q-.6-.582-1.82-.582h-2.365zm19.199 1.501q0 .582-.075 1.051h-7.903q.095 1.24.92 1.99.826.751 2.027.751 1.728 0 2.44-1.445h2.31a4.7 4.7 0 0 1-1.709 2.346q-1.22.901-3.04.901-1.485 0-2.666-.657a4.9 4.9 0 0 1-1.84-1.877q-.656-1.22-.657-2.816 0-1.595.639-2.797a4.6 4.6 0 0 1 1.82-1.877q1.184-.657 2.703-.657 1.465 0 2.61.639a4.5 4.5 0 0 1 1.783 1.802q.638 1.144.638 2.646m-2.234-.675q-.018-1.183-.844-1.896-.826-.714-2.046-.714-1.108 0-1.896.714-.789.694-.939 1.896zm8.094 6.269q-1.22 0-2.196-.432-.958-.45-1.52-1.201a3.04 3.04 0 0 1-.601-1.708h2.215q.056.657.619 1.107.582.432 1.445.432.901 0 1.39-.338.506-.357.506-.901 0-.582-.563-.863-.544-.282-1.746-.62a17 17 0 0 1-1.895-.619 3.4 3.4 0 0 1-1.277-.92q-.525-.62-.525-1.633 0-.826.488-1.502.487-.695 1.389-1.088.92-.395 2.102-.395 1.764 0 2.834.901 1.089.883 1.164 2.422h-2.14q-.056-.694-.563-1.108-.507-.413-1.37-.413-.845 0-1.295.32-.45.318-.45.844 0 .414.3.695t.732.45q.431.15 1.276.394 1.126.301 1.84.62.732.3 1.257.901.526.6.544 1.595 0 .882-.488 1.577t-1.389 1.089q-.882.394-2.083.394m15.64-10.512V426h-2.14v-1.22a3.55 3.55 0 0 1-1.333 1.014 4.2 4.2 0 0 1-1.727.356q-1.22 0-2.197-.507a3.74 3.74 0 0 1-1.52-1.501q-.544-.995-.544-2.403v-6.082h2.12v5.763q0 1.389.695 2.14.694.732 1.896.732t1.896-.732q.713-.751.713-2.14v-5.763zm15.343-.169q1.22 0 2.177.507.975.507 1.52 1.502.564.994.563 2.403v6.1h-2.12v-5.781q0-1.389-.695-2.121-.694-.751-1.896-.751t-1.915.751q-.694.732-.694 2.121V426h-2.121v-5.781q0-1.389-.695-2.121-.695-.751-1.895-.751-1.202 0-1.915.751-.695.732-.695 2.121V426h-2.14v-10.343h2.14v1.183q.525-.639 1.333-.995a4.2 4.2 0 0 1 1.727-.357q1.239 0 2.215.526.975.525 1.502 1.52.468-.938 1.464-1.482a4.27 4.27 0 0 1 2.14-.564m16.463 5.087q0 .582-.076 1.051h-7.902q.095 1.24.92 1.99.825.751 2.027.751 1.727 0 2.44-1.445h2.309a4.7 4.7 0 0 1-1.708 2.346q-1.22.901-3.041.901-1.483 0-2.665-.657a4.9 4.9 0 0 1-1.84-1.877q-.657-1.22-.657-2.816t.638-2.797a4.6 4.6 0 0 1 1.821-1.877q1.182-.657 2.703-.657 1.464 0 2.609.639a4.5 4.5 0 0 1 1.783 1.802q.639 1.144.639 2.646m-2.234-.675q-.019-1.183-.845-1.896-.825-.714-2.046-.714-1.107 0-1.896.714-.788.694-.938 1.896zm10.304-5.613q-.582 0-.976-.394a1.33 1.33 0 0 1-.394-.976q0-.582.394-.976t.976-.394q.563 0 .957.394t.394.976-.394.976a1.3 1.3 0 0 1-.957.394m1.051 1.37V426h-2.14v-10.343zm8.028-.169q1.22 0 2.177.507a3.6 3.6 0 0 1 1.521 1.502q.544.994.544 2.403v6.1h-2.121v-5.781q0-1.389-.695-2.121-.695-.751-1.895-.751-1.202 0-1.915.751-.695.732-.695 2.121V426h-2.139v-10.343h2.139v1.183a3.56 3.56 0 0 1 1.333-.995 4.4 4.4 0 0 1 1.746-.357m9.468 1.915v5.725q0 .582.263.845.28.243.938.244h1.314V426h-1.689q-1.446 0-2.215-.676-.77-.675-.77-2.196v-5.725h-1.22v-1.746h1.22v-2.571h2.159v2.571h2.515v1.746zm13.967 3.172q0 .582-.075 1.051h-7.903q.094 1.24.92 1.99.825.751 2.027.751 1.727 0 2.44-1.445h2.309a4.7 4.7 0 0 1-1.708 2.346q-1.22.901-3.041.901-1.483 0-2.665-.657a4.9 4.9 0 0 1-1.84-1.877q-.657-1.22-.657-2.816t.638-2.797a4.6 4.6 0 0 1 1.821-1.877q1.183-.657 2.703-.657 1.464 0 2.609.639a4.5 4.5 0 0 1 1.783 1.802q.639 1.144.639 2.646m-2.234-.675q-.019-1.183-.845-1.896-.825-.714-2.046-.714-1.107 0-1.896.714-.788.694-.938 1.896zm6.479-2.741a3.3 3.3 0 0 1 1.239-1.22q.789-.45 1.858-.451v2.215h-.544q-1.258 0-1.914.639-.639.637-.639 2.215V426h-2.14v-10.343h2.14zm7.204.019q.544-.714 1.483-1.202t2.121-.488q1.352 0 2.459.676a4.6 4.6 0 0 1 1.765 1.858q.638 1.202.638 2.76t-.638 2.797a4.83 4.83 0 0 1-1.765 1.914 4.6 4.6 0 0 1-2.459.676q-1.182 0-2.102-.469-.92-.489-1.502-1.202v6.42h-2.14v-15.261h2.14zm6.288 3.604q0-1.07-.45-1.84-.432-.788-1.164-1.182a3.08 3.08 0 0 0-3.078 0q-.714.412-1.164 1.201-.432.789-.432 1.858 0 1.07.432 1.877.45.788 1.164 1.202a3.1 3.1 0 0 0 1.539.413 3 3 0 0 0 1.539-.413 3.1 3.1 0 0 0 1.164-1.239q.45-.807.45-1.877m6.434-3.623a3.3 3.3 0 0 1 1.239-1.22q.788-.45 1.858-.451v2.215h-.544q-1.258 0-1.915.639-.638.637-.638 2.215V426h-2.14v-10.343h2.14zm14.543 3.416q0 .582-.075 1.051h-7.902q.094 1.24.919 1.99.826.751 2.028.751 1.726 0 2.44-1.445h2.308a4.7 4.7 0 0 1-1.708 2.346q-1.22.901-3.04.901-1.484 0-2.666-.657a4.9 4.9 0 0 1-1.839-1.877q-.657-1.22-.657-2.816t.638-2.797a4.6 4.6 0 0 1 1.821-1.877q1.182-.657 2.703-.657 1.463 0 2.609.639a4.5 4.5 0 0 1 1.783 1.802q.638 1.144.638 2.646m-2.234-.675q-.019-1.183-.844-1.896-.826-.714-2.046-.714-1.109 0-1.896.714-.789.694-.939 1.896zm6.836-2.497v5.725q0 .582.263.845.282.243.939.244h1.314V426h-1.69q-1.445 0-2.215-.676-.77-.675-.769-2.196v-5.725h-1.22v-1.746h1.22v-2.571h2.158v2.571h2.516v1.746zm3.775 3.379q0-1.558.638-2.76.657-1.2 1.764-1.858a4.73 4.73 0 0 1 2.478-.676q1.22 0 2.121.488.92.47 1.464 1.183v-1.502h2.159V426h-2.159v-1.539q-.544.732-1.483 1.22-.938.488-2.14.488a4.6 4.6 0 0 1-2.44-.676q-1.107-.695-1.764-1.914-.638-1.24-.638-2.797m8.465.037q0-1.07-.45-1.858a3.03 3.03 0 0 0-1.145-1.201 3 3 0 0 0-1.54-.413q-.825 0-1.539.413-.712.394-1.164 1.182-.43.77-.431 1.84 0 1.07.431 1.877.451.807 1.164 1.239a3.1 3.1 0 0 0 1.539.413q.826 0 1.54-.413a3.04 3.04 0 0 0 1.145-1.202q.45-.806.45-1.877m7.466-3.416v5.725q0 .582.263.845.28.243.938.244h1.314V426h-1.689q-1.446 0-2.215-.676-.77-.675-.77-2.196v-5.725h-1.22v-1.746h1.22v-2.571h2.159v2.571h2.515v1.746zm5.576-3.116q-.582 0-.976-.394a1.33 1.33 0 0 1-.394-.976q0-.582.394-.976t.976-.394q.563 0 .957.394.395.394.395.976t-.395.976a1.3 1.3 0 0 1-.957.394m1.051 1.37V426h-2.14v-10.343zm7.296 10.512q-1.464 0-2.647-.657a4.87 4.87 0 0 1-1.858-1.877q-.676-1.22-.676-2.816 0-1.576.695-2.797a4.8 4.8 0 0 1 1.895-1.877q1.201-.657 2.685-.657 1.482 0 2.684.657a4.8 4.8 0 0 1 1.896 1.877q.694 1.22.694 2.797t-.713 2.797a5 5 0 0 1-1.952 1.896q-1.221.657-2.703.657m0-1.858q.825 0 1.539-.395.732-.394 1.183-1.182.45-.789.45-1.915t-.432-1.896q-.432-.787-1.145-1.182a3.1 3.1 0 0 0-1.539-.394q-.826 0-1.539.394-.694.394-1.108 1.182-.413.77-.413 1.896 0 1.67.845 2.591.863.9 2.159.901m12.702-8.823q1.22 0 2.177.507a3.6 3.6 0 0 1 1.521 1.502q.543.994.544 2.403v6.1h-2.121v-5.781q0-1.389-.695-2.121-.695-.751-1.895-.751-1.202 0-1.915.751-.695.732-.695 2.121V426h-2.139v-10.343h2.139v1.183a3.56 3.56 0 0 1 1.333-.995 4.4 4.4 0 0 1 1.746-.357m16.183 1.915h-1.914V426h-2.159v-8.597h-1.22v-1.746h1.22v-.732q0-1.783.939-2.59.957-.826 2.984-.826v1.783q-.975 0-1.37.376-.394.356-.394 1.257v.732h1.914zm6.383 8.766q-1.464 0-2.647-.657a4.9 4.9 0 0 1-1.858-1.877q-.675-1.22-.676-2.816 0-1.576.695-2.797a4.8 4.8 0 0 1 1.896-1.877q1.201-.657 2.684-.657 1.482 0 2.684.657a4.8 4.8 0 0 1 1.896 1.877q.694 1.22.694 2.797t-.713 2.797a5 5 0 0 1-1.952 1.896q-1.22.657-2.703.657m0-1.858q.827 0 1.539-.395.732-.394 1.183-1.182.45-.789.45-1.915t-.431-1.896q-.432-.787-1.145-1.182a3.13 3.13 0 0 0-1.54-.394q-.825 0-1.539.394-.695.394-1.107 1.182-.413.77-.413 1.896 0 1.67.844 2.591.864.9 2.159.901m9.624-7.152a3.3 3.3 0 0 1 1.238-1.22q.788-.45 1.859-.451v2.215h-.545q-1.257 0-1.914.639-.638.637-.638 2.215V426h-2.14v-10.343h2.14zm17.805 6.176h-5.463l-.938 2.665h-2.234l4.674-13.064h2.478L290.47 426h-2.253zm-.601-1.746-2.121-6.063-2.14 6.063zm14.252-8.635v1.746h-3.473V426h-2.14v-11.3h-3.491v-1.746zm6.465 13.177q-1.314 0-2.365-.45-1.05-.47-1.652-1.314-.6-.844-.6-1.971h2.29q.075.844.657 1.389.6.544 1.67.544 1.108 0 1.727-.525.62-.545.62-1.389 0-.657-.394-1.07a2.5 2.5 0 0 0-.958-.638q-.563-.225-1.577-.488-1.276-.339-2.083-.676a3.53 3.53 0 0 1-1.352-1.089q-.563-.732-.563-1.952 0-1.126.563-1.971.564-.845 1.577-1.295 1.014-.45 2.347-.451 1.895 0 3.097.958 1.22.938 1.351 2.59h-2.365q-.056-.713-.676-1.22t-1.633-.507q-.92 0-1.501.47-.582.469-.582 1.351 0 .6.356.995.377.375.939.6.563.226 1.539.489 1.295.356 2.102.713a3.4 3.4 0 0 1 1.389 1.107q.582.732.582 1.971 0 .995-.544 1.877-.526.882-1.558 1.427-1.014.525-2.403.525M36.162 454.169q-1.22 0-2.196-.432-.957-.45-1.52-1.201a3.04 3.04 0 0 1-.601-1.708h2.215q.056.657.619 1.107.582.432 1.445.432.901 0 1.39-.338.506-.357.506-.901 0-.582-.563-.863-.544-.282-1.746-.62a17 17 0 0 1-1.895-.619 3.4 3.4 0 0 1-1.277-.92q-.525-.62-.525-1.633 0-.826.488-1.502.487-.695 1.389-1.088.92-.395 2.102-.395 1.764 0 2.834.901 1.089.883 1.164 2.422h-2.14q-.056-.694-.563-1.108-.507-.413-1.37-.413-.845 0-1.295.32-.45.318-.45.844 0 .414.3.695t.732.45q.431.15 1.276.394 1.126.301 1.84.62.732.3 1.257.901.526.6.544 1.595 0 .882-.487 1.577-.489.695-1.39 1.089-.882.394-2.083.394m5.56-5.35q0-1.595.638-2.797.657-1.22 1.802-1.877t2.627-.657q1.878 0 3.098.901 1.238.883 1.67 2.534h-2.309a2.44 2.44 0 0 0-.9-1.201q-.62-.432-1.559-.432-1.314 0-2.102.939-.77.92-.77 2.59 0 1.671.77 2.609.79.939 2.102.939 1.86 0 2.46-1.633h2.308q-.45 1.576-1.69 2.515-1.237.92-3.078.92-1.482 0-2.627-.657a4.8 4.8 0 0 1-1.802-1.877q-.639-1.22-.639-2.816m14.108-3.66a3.3 3.3 0 0 1 1.238-1.22q.788-.45 1.859-.451v2.215h-.545q-1.257 0-1.914.639-.639.637-.638 2.215V454h-2.14v-10.343h2.14zm14.543 3.416q0 .582-.075 1.051h-7.903q.095 1.24.92 1.99.825.751 2.027.751 1.728 0 2.44-1.445h2.31a4.7 4.7 0 0 1-1.709 2.346q-1.22.901-3.04.901-1.484 0-2.666-.657a4.9 4.9 0 0 1-1.84-1.877q-.657-1.22-.657-2.816t.639-2.797a4.6 4.6 0 0 1 1.82-1.877q1.184-.657 2.703-.657 1.464 0 2.61.639a4.5 4.5 0 0 1 1.783 1.802q.638 1.144.638 2.646m-2.234-.675q-.018-1.183-.844-1.896-.827-.714-2.046-.714-1.108 0-1.896.714-.789.694-.939 1.896zm13.819.675q0 .582-.075 1.051H73.98q.095 1.24.92 1.99.825.751 2.027.751 1.728 0 2.44-1.445h2.31a4.7 4.7 0 0 1-1.709 2.346q-1.22.901-3.04.901-1.484 0-2.666-.657a4.9 4.9 0 0 1-1.84-1.877q-.657-1.22-.657-2.816t.639-2.797a4.6 4.6 0 0 1 1.82-1.877q1.183-.657 2.703-.657 1.464 0 2.61.639a4.5 4.5 0 0 1 1.783 1.802q.638 1.144.638 2.646m-2.234-.675q-.018-1.183-.845-1.896-.825-.714-2.046-.714-1.107 0-1.895.714-.789.694-.939 1.896zm9.558-4.412q1.22 0 2.177.507.977.507 1.52 1.502.546.994.545 2.403v6.1h-2.121v-5.781q0-1.389-.695-2.121-.694-.751-1.895-.751t-1.915.751q-.694.732-.694 2.121V454h-2.14v-10.343h2.14v1.183q.525-.639 1.332-.995a4.35 4.35 0 0 1 1.746-.357m8.06-1.201q-.582 0-.976-.394a1.33 1.33 0 0 1-.394-.976q0-.582.394-.976t.976-.394q.564 0 .957.394.395.394.395.976t-.395.976a1.3 1.3 0 0 1-.957.394m1.051 1.37V454h-2.14v-10.343zm8.028-.169q1.22 0 2.177.507a3.6 3.6 0 0 1 1.521 1.502q.544.994.544 2.403v6.1h-2.121v-5.781q0-1.389-.694-2.121-.694-.751-1.896-.751t-1.915.751q-.694.732-.694 2.121V454h-2.14v-10.343h2.14v1.183a3.55 3.55 0 0 1 1.332-.995 4.4 4.4 0 0 1 1.746-.357m11.139 0q1.202 0 2.121.488.939.47 1.464 1.183v-1.502h2.159v10.512q0 1.427-.601 2.534a4.3 4.3 0 0 1-1.746 1.764q-1.127.639-2.703.639-2.102 0-3.491-.995-1.39-.976-1.577-2.666h2.121q.244.807 1.033 1.296.807.506 1.914.506 1.296 0 2.084-.788.807-.789.807-2.29v-1.727q-.544.732-1.483 1.239-.92.488-2.102.488a4.7 4.7 0 0 1-2.478-.676q-1.107-.695-1.764-1.914-.639-1.24-.639-2.797t.639-2.76q.657-1.2 1.764-1.858a4.73 4.73 0 0 1 2.478-.676m3.585 5.331q0-1.07-.45-1.858a3.01 3.01 0 0 0-2.685-1.614q-.825 0-1.539.413-.712.394-1.164 1.182-.43.77-.431 1.84 0 1.07.431 1.877.451.807 1.164 1.239a3.1 3.1 0 0 0 1.539.413 3 3 0 0 0 1.539-.413 3.04 3.04 0 0 0 1.146-1.202q.45-.806.45-1.877m10.934-6.532q-.582 0-.976-.394a1.33 1.33 0 0 1-.394-.976q0-.582.394-.976t.976-.394q.563 0 .957.394t.394.976-.394.976a1.3 1.3 0 0 1-.957.394m1.051 1.37V454h-2.14v-10.343zm8.028-.169q1.22 0 2.177.507a3.6 3.6 0 0 1 1.521 1.502q.544.994.544 2.403v6.1h-2.121v-5.781q0-1.389-.695-2.121-.695-.751-1.896-.751-1.2 0-1.914.751-.695.732-.695 2.121V454h-2.14v-10.343h2.14v1.183a3.56 3.56 0 0 1 1.333-.995 4.4 4.4 0 0 1 1.746-.357m24.367 0q1.221 0 2.178.507.975.507 1.52 1.502.563.994.563 2.403v6.1h-2.121v-5.781q0-1.389-.694-2.121-.695-.751-1.896-.751t-1.915.751q-.694.732-.694 2.121V454h-2.121v-5.781q0-1.389-.695-2.121-.694-.751-1.896-.751t-1.914.751q-.695.732-.695 2.121V454h-2.14v-10.343h2.14v1.183a3.56 3.56 0 0 1 1.333-.995 4.2 4.2 0 0 1 1.727-.357q1.239 0 2.215.526.975.525 1.501 1.52.47-.938 1.464-1.482a4.3 4.3 0 0 1 2.14-.564m8.073-1.201q-.582 0-.976-.394a1.33 1.33 0 0 1-.394-.976q0-.582.394-.976t.976-.394q.563 0 .957.394t.394.976-.394.976a1.3 1.3 0 0 1-.957.394m1.051 1.37V454h-2.14v-10.343zm8.028-.169q1.22 0 2.177.507a3.6 3.6 0 0 1 1.52 1.502q.545.994.545 2.403v6.1h-2.121v-5.781q0-1.389-.695-2.121-.695-.751-1.896-.751-1.2 0-1.914.751-.695.732-.695 2.121V454h-2.14v-10.343h2.14v1.183a3.56 3.56 0 0 1 1.333-.995 4.4 4.4 0 0 1 1.746-.357m16.338.169V454h-2.14v-1.22a3.54 3.54 0 0 1-1.333 1.014 4.2 4.2 0 0 1-1.727.356q-1.22 0-2.196-.507a3.73 3.73 0 0 1-1.52-1.501q-.545-.995-.545-2.403v-6.082h2.122v5.763q0 1.389.694 2.14.695.732 1.896.732t1.896-.732q.713-.751.713-2.14v-5.763zm5.32 1.746v5.725q0 .582.263.845.28.243.938.244h1.314V454h-1.689q-1.446 0-2.215-.676-.77-.675-.77-2.196v-5.725h-1.22v-1.746h1.22v-2.571h2.159v2.571h2.515v1.746zm13.966 3.172q0 .582-.075 1.051h-7.902q.093 1.24.92 1.99.825.751 2.027.751 1.727 0 2.44-1.445h2.309a4.7 4.7 0 0 1-1.708 2.346q-1.22.901-3.041.901-1.483 0-2.666-.657a4.9 4.9 0 0 1-1.839-1.877q-.657-1.22-.657-2.816t.638-2.797a4.6 4.6 0 0 1 1.821-1.877q1.182-.657 2.703-.657 1.464 0 2.609.639a4.5 4.5 0 0 1 1.783 1.802q.638 1.144.638 2.646m-2.233-.675q-.019-1.183-.845-1.896-.827-.714-2.046-.714-1.107 0-1.896.714-.788.694-.938 1.896zm8.093 6.269q-1.22 0-2.196-.432-.957-.45-1.52-1.201a3.04 3.04 0 0 1-.601-1.708h2.215q.057.657.619 1.107.582.432 1.446.432.9 0 1.389-.338.507-.357.507-.901 0-.582-.563-.863-.544-.282-1.746-.62a17 17 0 0 1-1.896-.619 3.4 3.4 0 0 1-1.276-.92q-.526-.62-.526-1.633 0-.826.488-1.502.488-.695 1.389-1.088.92-.395 2.102-.395 1.765 0 2.835.901 1.089.883 1.164 2.422h-2.14q-.057-.694-.563-1.108-.507-.413-1.371-.413-.845 0-1.295.32-.45.318-.45.844 0 .414.3.695t.732.45q.432.15 1.276.394 1.126.301 1.84.62.732.3 1.258.901.525.6.544 1.595a2.68 2.68 0 0 1-.488 1.577q-.488.695-1.389 1.089-.882.394-2.084.394"/><defs><linearGradient id="a" x1="190" x2="190" y1="0" y2="509" gradientUnits="userSpaceOnUse"><stop offset=".008" stop-color="#5323E5"/><stop offset=".79" stop-color="#63C2EE"/><stop offset="1" stop-color="#76F4DC"/></linearGradient><clipPath id="b"><path fill="#fff" d="M85.151 82.192h15.438v15.342H85.151z"/></clipPath></defs></svg>