<svg xmlns="http://www.w3.org/2000/svg" width="1076" height="629" fill="none"><path stroke="url(#a)" stroke-dasharray="13.14 13.14" stroke-opacity=".6" stroke-width="2" d="M1075.12 400.819q.585 6.623.78 13.149l-1 .031c.07 2.176.1 4.343.1 6.501 0 2.224-.04 4.424-.1 6.602l.99.032c-.14 4.428-.42 8.762-.85 13.003l-.99-.1q-.66 6.565-1.77 12.832l.98.174q-1.155 6.544-2.79 12.776l-.96-.253a153 153 0 0 1-3.83 12.417l.94.336a147 147 0 0 1-4.94 12.096l-.91-.42q-2.73 5.916-5.97 11.509l.86.501q-3.27 5.654-7.05 10.989l-.81-.577a149 149 0 0 1-7.95 10.248l.77.647q-4.2 4.947-8.85 9.602l-.71-.707a171 171 0 0 1-9.53 8.822l.65.759a189 189 0 0 1-10.22 8.159l-.6-.802c-3.43 2.558-7 5.037-10.69 7.439l.54.838a232 232 0 0 1-11.148 6.81l-.498-.868a260 260 0 0 1-11.424 6.17l.453.891a291 291 0 0 1-11.766 5.652l-.413-.911a327 327 0 0 1-11.989 5.146l.376.926a364 364 0 0 1-12.255 4.717l-.343-.939a406 406 0 0 1-12.26 4.247l.313.95a453 453 0 0 1-12.458 3.897l-.285-.959a500 500 0 0 1-12.599 3.564l.26.966a555 555 0 0 1-12.641 3.24l-.237-.972a602 602 0 0 1-12.683 2.95l.216.977q-6.34 1.404-12.847 2.713l-.197-.981a739 739 0 0 1-12.775 2.451l.18.984a802 802 0 0 1-12.874 2.245l-.164-.987q-6.402 1.065-12.945 2.051l.149.989a958 958 0 0 1-12.878 1.852l-.135-.991q-6.44.882-13.004 1.697l.123.993q-6.41.795-12.935 1.529l-.112-.994q-6.446.726-13.003 1.391l.101.995q-6.453.656-13.011 1.256l-.091-.995q-6.45.59-13 1.13l.082.996q-6.483.534-13.061 1.02l-.074-.998q-6.454.477-12.997.907l.066.998q-6.504.429-13.093.813l-.059-.998q-6.458.378-12.996.715l.051.999q-6.516.336-13.11.634l-.045-.999q-6.464.293-13.001.549l.04.999q-6.523.257-13.117.479l-.033-.999q-6.471.219-13.008.406l.028.999q-6.524.187-13.114.344l-.023-1q-6.48.155-13.02.282l.02.999q-6.524.127-13.106.227l-.015-1q-6.49.1-13.034.174l.011 1q-6.52.074-13.093.126l-.008-1q-6.5.051-13.051.08l.004 1q-6.514.03-13.078.039l-.002-1q-3.28.005-6.575.005-3.363 0-6.715-.024l-.008 1a943 943 0 0 1-13.386-.19l.022-1a933 933 0 0 1-13.356-.379l-.035.999q-6.714-.239-13.383-.572l.05-.999q-6.69-.334-13.331-.763l-.065.998a918 918 0 0 1-13.367-.961l.079-.996a917 917 0 0 1-13.298-1.152l-.093.995a888 888 0 0 1-13.338-1.354l.108-.994q-6.656-.726-13.254-1.547l-.123.993a885 885 0 0 1-13.294-1.756l.139-.99a867 867 0 0 1-13.2-1.949l-.154.988a865 865 0 0 1-13.233-2.164l.169-.986a844 844 0 0 1-13.134-2.36l-.185.983a841 841 0 0 1-13.155-2.582l.2-.979a822 822 0 0 1-13.056-2.783l-.216.977a804 804 0 0 1-13.058-3.009l.233-.972a794 794 0 0 1-12.965-3.217l-.249.968a776 776 0 0 1-12.936-3.445l.266-.964a756 756 0 0 1-12.858-3.666l-.283.959a743 743 0 0 1-12.789-3.895l.3-.954a719 719 0 0 1-12.733-4.133l-.318.949a709 709 0 0 1-12.613-4.357l.335-.942a687 687 0 0 1-12.586-4.619l-.354.935a672 672 0 0 1-12.428-4.842l.373-.928a650 650 0 0 1-12.39-5.119l-.391.92a625 625 0 0 1-12.245-5.364l.411-.911a612 612 0 0 1-12.119-5.624l-.431.902a582 582 0 0 1-12.027-5.914l.451-.892a563 563 0 0 1-11.799-6.146l-.472.882a543 543 0 0 1-11.767-6.496l.494-.869a520 520 0 0 1-11.513-6.74l-.516.856a495 495 0 0 1-11.36-7.057l.54-.842a477 477 0 0 1-11.172-7.373l-.562.826a455 455 0 0 1-10.926-7.671l.587-.81a431 431 0 0 1-10.701-8.008l-.611.791a407 407 0 0 1-10.47-8.368l.637-.77a389 389 0 0 1-10.118-8.658l-.663.748a367 367 0 0 1-9.859-9.06l.69-.724a346 346 0 0 1-9.496-9.408l-.718.697a327 327 0 0 1-9.115-9.778l.745-.666a308 308 0 0 1-8.657-10.106l-.774.634a291 291 0 0 1-8.266-10.57l.802-.598a274 274 0 0 1-7.709-10.885l-.83.557a258 258 0 0 1-7.168-11.282l.858-.514a243 243 0 0 1-6.527-11.591l-.885.467a232 232 0 0 1-5.911-12.032l.91-.414a221 221 0 0 1-5.16-12.286l-.933.359a212 212 0 0 1-4.407-12.629l.954-.299a204 204 0 0 1-3.57-12.82l-.97.236a199 199 0 0 1-2.728-13.099l.986-.171a195 195 0 0 1-1.824-13.185l-.995.103q-.687-6.635-.92-13.34l1-.034a194 194 0 0 1-.002-13.274l-1-.034q.227-6.629.903-13.154l.995.102q.678-6.551 1.8-12.997l-.984-.172a191 191 0 0 1 2.714-12.923l.97.239a193 193 0 0 1 3.574-12.631l-.953-.304a199 199 0 0 1 4.436-12.425l.93.367a205 205 0 0 1 5.214-12.059l-.905-.426a215 215 0 0 1 5.996-11.78l.877.481a226 226 0 0 1 6.641-11.321l-.847-.53a239 239 0 0 1 7.305-10.976l.817.577a253 253 0 0 1 7.86-10.541l-.786-.618a270 270 0 0 1 8.433-10.193l.755.656q4.274-4.917 8.85-9.718l-.725-.69a306 306 0 0 1 9.295-9.339l.694.72a326 326 0 0 1 9.673-8.941l-.664-.748a348 348 0 0 1 10.068-8.599l.635.772a369 369 0 0 1 10.282-8.146l-.607-.795a393 393 0 0 1 10.626-7.838l.58.815a415 415 0 0 1 10.893-7.497l-.554-.833a437 437 0 0 1 11.053-7.115l.528.848a467 467 0 0 1 11.287-6.81l-.504-.863a491 491 0 0 1 11.515-6.521l.481.877a513 513 0 0 1 11.594-6.17l-.459-.888a542 542 0 0 1 11.837-5.925l.437.9a566 566 0 0 1 11.905-5.608l-.415-.91a589 589 0 0 1 12.062-5.349l.395.919a616 616 0 0 1 12.199-5.094l-.376-.927a643 643 0 0 1 12.245-4.815l.356.934a667 667 0 0 1 12.408-4.592l-.338-.941a695 695 0 0 1 12.428-4.328l.32.947q6.219-2.1 12.549-4.108l-.302-.953a739 739 0 0 1 12.61-3.877l.285.959a763 763 0 0 1 12.668-3.653l-.269-.963a788 788 0 0 1 12.759-3.445l.253.968a808 808 0 0 1 12.767-3.221l-.237-.972q6.397-1.56 12.88-3.03l.222.975q6.384-1.448 12.852-2.811l-.206-.979a875 875 0 0 1 12.976-2.63l.192.981a890 890 0 0 1 12.925-2.42l-.177-.984a912 912 0 0 1 13.053-2.246l.162.986q6.46-1.063 12.987-2.043l-.148-.989a946 946 0 0 1 13.111-1.874l.135.99a963 963 0 0 1 13.04-1.68l-.121-.992a980 980 0 0 1 13.154-1.514l.108.994q6.515-.705 13.085-1.328l-.095-.996q6.566-.623 13.184-1.163l.081.996q6.537-.533 13.123-.986l-.069-.997q6.577-.452 13.202-.822l.055.999q6.554-.367 13.153-.652l-.043-.999q6.582-.284 13.208-.488l.031 1q6.567-.203 13.175-.323l-.018-1q6.584-.12 13.206-.162l.006 1q3.309-.02 6.626-.02 3.309 0 6.606.038l.011-1q6.604.078 13.158.306l-.035 1q6.577.229 13.101.608l.058-.998q6.598.384 13.14.918l-.081.996q6.554.535 13.05 1.218l.104-.994q6.575.69 13.09 1.53l-.128.992q6.518.84 12.974 1.824l.151-.988q6.537.997 13.008 2.14l-.173.985q6.469 1.141 12.872 2.427l.197-.98q6.483 1.3 12.896 2.745l-.219.975q6.408 1.443 12.746 3.024l.242-.97a568 568 0 0 1 12.755 3.34l-.265.965a568 568 0 0 1 12.594 3.613l.287-.958a570 570 0 0 1 12.585 3.926l-.309.951a571 571 0 0 1 12.417 4.19l.33-.944a574 574 0 0 1 12.39 4.5l-.352.937q6.15 2.314 12.214 4.756l.374-.928a579 579 0 0 1 12.168 5.061l-.395.92a575 575 0 0 1 11.989 5.309l.415-.91a579 579 0 0 1 11.922 5.607l-.436.9a578 578 0 0 1 11.74 5.85l.457-.89a581 581 0 0 1 11.65 6.14l-.476.879a582 582 0 0 1 11.47 6.378l.495-.869q5.732 3.273 11.356 6.655l-.515.857a580 580 0 0 1 11.176 6.893l.535-.845a582 582 0 0 1 11.035 7.155l-.553.833q5.49 3.647 10.862 7.396l.572-.82a579 579 0 0 1 10.69 7.64l-.591.806a581 581 0 0 1 10.524 7.889l.609-.793a576 576 0 0 1 10.319 8.109l-.627.779a570 570 0 0 1 10.162 8.371l.645-.764a568 568 0 0 1 9.937 8.579l-.662.749a560 560 0 0 1 9.755 8.829l.68-.734a559 559 0 0 1 9.536 9.049l-.697.717a542 542 0 0 1 9.307 9.264l.714-.701a533 533 0 0 1 9.105 9.513l-.73.682a529 529 0 0 1 8.821 9.682l.748-.664a513 513 0 0 1 8.638 9.971l-.764.645a506 506 0 0 1 8.324 10.12l.781-.626a500 500 0 0 1 8.1 10.389l-.797.604a513 513 0 0 1 7.798 10.571l.81-.582c2.56 3.576 5.06 7.166 7.49 10.769l-.83.559a448 448 0 0 1 7.22 11.019l.84-.535q3.54 5.585 6.87 11.2l-.86.509c2.24 3.788 4.42 7.585 6.51 11.386l.88-.483q3.21 5.815 6.18 11.644l-.89.455c2 3.918 3.92 7.839 5.75 11.761l.91-.424q2.805 6.007 5.37 12.015l-.92.391q2.595 6.099 4.92 12.185l.94-.357c1.57 4.124 3.06 8.244 4.45 12.355l-.95.32c1.41 4.175 2.72 8.341 3.94 12.495l.96-.28q1.86 6.388 3.42 12.737l-.98.237q1.575 6.425 2.82 12.798l.98-.192c.84 4.334 1.58 8.647 2.19 12.937l-.99.142c.63 4.369 1.13 8.712 1.51 13.027z"/><defs><linearGradient id="a" x1="538" x2="538" y1=".5" y2="629" gradientUnits="userSpaceOnUse"><stop offset=".115" stop-color="#76F4DC"/><stop offset=".57" stop-color="#63C2EE"/><stop offset=".865" stop-color="#5323E5"/></linearGradient></defs></svg>