<svg xmlns="http://www.w3.org/2000/svg" width="169" height="44" fill="none"><g clip-path="url(#a)"><path fill="#5323E5" d="M26.735 20.445c-1.474 6.778-7.182 11.577-13.762 11.577h-.23l1.876-8.62c.33-1.514-.76-2.957-2.23-2.957H2.527l.494-2.26.13-.61L4.81 9.97c.136-.64.682-1.099 1.31-1.099h11.895c5.753 0 10.008 5.653 8.72 11.577"/><path fill="#5323E5" d="M26.735 20.445c-1.474 6.778-7.182 11.577-13.762 11.577h-.23l1.876-8.62c.33-1.514-.76-2.957-2.23-2.957H2.527l.494-2.26.13-.61L4.81 9.97c.136-.64.682-1.099 1.31-1.099h11.895c5.753 0 10.008 5.653 8.72 11.577"/><path fill="#76F4DC" d="m0 32.02 9.9 8.002c.44.348 1.078.104 1.2-.466l1.643-7.536z"/><mask id="b" width="20" height="20" x="2" y="14" maskUnits="userSpaceOnUse" style="mask-type:luminance"><path fill="#fff" d="M5.36 15.939c-3.319 1.605-2.706 5.35-2.706 8.957 0 5.239 1.894 8.876 7.77 8.876s10.642-4.248 10.642-9.487S16.3 14.8 10.424 14.8c-1.831 0-3.557.415-5.063 1.14"/></mask><g mask="url(#b)"><path fill="url(#c)" d="M2.041 14.8v18.972h2.136V31.97h9.367v-.082h.358v-1.78h7.164V14.8z"/></g><path fill="url(#d)" d="m2.528 20.443-.49 2.26-1.754 8.059-.109.492-.175.762h12.743L14.62 23.4c.33-1.514-.76-2.957-2.23-2.957H4.726c-1.124 0-1.957-1.102-1.701-2.26l-.494 2.26z"/><path fill="#fff" d="M44.7 11.594c2.475 0 4.45.721 5.918 2.172q2.2 2.17 2.199 5.927c0 2.504-.74 4.528-2.217 6.012q-2.218 2.222-5.9 2.223h-4.924v7.785h-4.66V11.598H44.7zm-.197 11.643q1.763 0 2.672-.929.914-.93.914-2.549c0-1.08-.304-1.957-.914-2.567q-.912-.912-2.671-.914h-4.728v6.96zM66.495 16.762h4.664V35.71h-4.664v-2.616q-2.055 3.03-5.543 3.03-2.967 0-4.679-2.016t-1.712-5.461V16.762h4.664V27.58q0 1.932.767 2.893.765.966 2.528.966 1.923 0 2.952-1.206 1.025-1.206 1.026-3.515v-9.956zM83.83 16.35q.455-.001 1.043.07v5.065q-.718-.069-1.142-.07c-1.652 0-2.983.45-3.992 1.361q-1.517 1.36-1.516 4.495v8.44h-4.664V16.763h4.664v3.308c1.11-2.48 2.977-3.719 5.61-3.719M97.28 16.35q3.49 0 5.838 2.77 2.347 2.775 2.346 7.115t-2.332 7.115-5.851 2.775c-2.347 0-4.262-.988-5.673-2.964v8.106l-4.665 1.765V16.764h4.665v2.653q2.084-3.066 5.673-3.067m-1.074 15.087q1.953.002 3.246-1.447 1.288-1.447 1.288-3.755t-1.27-3.755q-1.274-1.448-3.26-1.447-1.989-.001-3.293 1.447-1.302 1.448-1.302 3.755t1.302 3.756q1.305 1.447 3.292 1.446M109.717 19.177q2.705-2.827 6.618-2.827t6.636 2.826q2.723 2.825 2.725 7.063c0 2.827-.897 5.21-2.69 7.078q-2.69 2.808-6.667 2.808c-2.651 0-4.843-.94-6.636-2.827q-2.69-2.823-2.689-7.063-.002-4.239 2.707-7.062m9.927 3.307c-.879-.965-1.985-1.446-3.309-1.446s-2.43.48-3.309 1.446c-.883.966-1.32 2.217-1.32 3.755q0 2.308 1.32 3.756 1.319 1.447 3.309 1.446 1.99.002 3.309-1.446t1.32-3.756q0-2.307-1.32-3.755M135.298 36.125q-3.618 0-6.03-1.776-2.41-1.775-2.903-4.876h4.728q.588 2.548 4.338 2.549 3.032-.001 3.033-1.55-.001-.206-.049-.378a.8.8 0 0 0-.165-.31 3 3 0 0 0-.245-.26 1.3 1.3 0 0 0-.374-.225 6 6 0 0 0-.442-.17 16.011 16.011 0 0 0-1.222-.344 23 23 0 0 0-.767-.17 10 10 0 0 1-.847-.208q-4.013-1-5.593-2.186-1.582-1.187-1.582-3.567 0-2.962 2.136-4.632 2.136-1.672 5.722-1.672 3.588.002 5.575 1.635 1.99 1.636 2.479 4.429h-4.728q-.588-1.932-3.487-1.932c-1.933 0-3.001.53-3.001 1.584q0 .622.619.895.621.277 2.805.792 2.185.518 3.457.947 1.271.431 2.412 1.117 1.14.688 1.632 1.654.49.965.49 2.342c0 2.042-.749 3.607-2.248 4.684q-2.25 1.62-5.739 1.62M153.966 16.35q4.404.002 6.962 3.204 2.559 3.202 2.203 7.958h-13.759q.227 2.209 1.499 3.374 1.27 1.172 3.162 1.173 1.369 0 2.444-.636c.718-.426 1.229-1.003 1.534-1.74h4.825q-.946 3.204-3.326 4.825-2.382 1.62-5.446 1.62-4.171-.002-6.814-2.789-2.64-2.79-2.64-7.063t2.64-7.096q2.641-2.824 6.716-2.823m-.031 4.066c-1.107 0-2.035.315-2.774.947q-1.107.95-1.565 2.531h8.576c-.263-1.054-.76-1.898-1.499-2.53q-1.11-.949-2.738-.948"/></g><defs><radialGradient id="c" cx="0" cy="0" r="1" gradientTransform="matrix(9.93325 0 0 8.85613 10.762 24.354)" gradientUnits="userSpaceOnUse"><stop stop-color="#2806BA"/><stop offset="1" stop-color="#5323E5"/></radialGradient><linearGradient id="d" x1="2.259" x2="12.659" y1="29.578" y2="22.166" gradientUnits="userSpaceOnUse"><stop stop-color="#574AFF"/><stop offset=".97" stop-color="#508FFF"/></linearGradient><clipPath id="a"><path fill="#fff" d="M0 .015h169v43.016H0z"/></clipPath></defs></svg>